<?xml version="1.0" encoding="UTF-8" standalone="yes"?>
<!DOCTYPE svg PUBLIC "-//W3C//DTD SVG 1.0//EN" "http://www.w3.org/TR/2001/REC-SVG-20010904/DTD/svg10.dtd">
<svg viewBox="0 0 2560 960" style="fill-rule:evenodd;stroke-linecap:square;stroke-linejoin:round;stroke-width:10" height="100%" width="100%" xmlns="http://www.w3.org/2000/svg">
  <defs>
    <pattern id="fill-line-9" x="0" y="0" width="40" height="20" patternUnits="userSpaceOnUse">
      <rect fill="#000000" x="0" y="0" width="10" height="20" />
      <rect fill="#000000" x="10" y="10" width="30" height="10" />
    </pattern>
  </defs>
  <rect id="block-1" class="block" fill="#00ff00" x="0" y="0" width="2560" height="320" />
  <rect id="block-2" class="block" fill="#ff0000" x="800" y="320" width="800" height="80" />
  <path id="block-3" class="block" fill="#00ffff" d="M 1520,560 h 1040 v -240 h -960 v 80 h -80 v 160" />
  <path id="block-4" class="block" fill="#00ffff" d="M 0,560 h 880 v -160 h -80 v -80 h -800 v 240" />
  <rect id="block-5" class="block" fill="#000000" x="1120" y="560" width="160" height="80" />
  <path id="block-6" class="block" fill="#ffff00" d="M 880,640 h 240 v -80 h 160 v 80 h 240 v -240 h -640 v 240" />
  <path id="block-7" class="block" fill="#00ff00" d="M 0,960 h 2560 v -400 h -1040 v 80 h -640 v -80 h -880 v 400" />
  <path id="area-1" class="area closed" fill="#ff0000" stroke="none" d="M 2310,785 h -35 l 40,-90 l 25,-290 l -40,-160 l 30,15 l 25,60 l 35,-155 l 55,-45 l -45,180 l 5,80 l 10,285 l 20,70 l 70,50 h -60 l -75,-50 Z" />
  <path id="area-2" class="area closed" fill="#ff0000" stroke="none" d="M 240,785 h -35 l 40,-90 l 25,-290 l -40,-160 l 30,15 l 25,60 l 35,-155 l 55,-45 l -45,180 l 5,80 l 10,285 l 20,70 l 70,50 h -60 l -75,-50 Z" />
  <path id="line-3" class="line closed" fill="#ff0000" stroke="#ff0000" d="M 425,945 l 60,-120 l 30,-390 l -50,-210 l 40,20 l 30,80 l 50,-210 l 70,-60 l -60,240 l 10,110 l 10,380 l 30,90 l 90,70 h -80 l -100,-70 l -80,70 h -60 Z" />
  <path id="line-4" class="line closed" fill="#ff0000" stroke="#ff0000" d="M 1875,945 l 60,-120 l 30,-390 l -50,-210 l 40,20 l 30,80 l 50,-210 l 70,-60 l -60,240 l 10,110 l 10,380 l 30,90 l 90,70 h -80 l -100,-70 l -80,70 h -60 Z" />
  <path id="line-5" class="line" fill="none" stroke="#ff0000" d="M 2275,785 l 40,-90 l 25,-290 l -40,-160 l 30,15 l 25,60 l 35,-155 l 55,-45 l -45,180 l 5,80 l 10,285 l 20,70 l 70,50 h -60 l -75,-50 l -60,50 h -45" />
  <path id="line-6" class="line" fill="none" stroke="#ff0000" d="M 205,785 l 40,-90 l 25,-290 l -40,-160 l 30,15 l 25,60 l 35,-155 l 55,-45 l -45,180 l 5,80 l 10,285 l 20,70 l 70,50 h -60 l -75,-50 l -60,50 h -45" />
  <path id="line-7" class="line closed" fill="#00ffff" stroke="#00ffff" d="M 645,335 l 70,70 h 80 l 80,-80 l -90,-20 l -20,-50 l -30,50 l -90,30 Z" />
  <path id="line-8" class="line closed" fill="#00ffff" stroke="#00ffff" d="M 1545,325 l 70,70 h 80 l 80,-80 l -90,-20 l -20,-50 l -30,50 l -90,30 Z" />
  <path id="line-9" class="line closed" fill="url(#fill-line-9)" stroke="#000000" d="M 1505,635 h -220 v -80 h -170 v 80 h -230 v -230 h 630 v 220 Z" />
  <path id="line-10" class="line closed" fill="#ff0000" stroke="#ff0000" d="M 895,305 l 70,-70 h 470 l 80,80 h -620 Z" />
  <path id="line-11" class="line closed" fill="#0000ff" stroke="#0000ff" d="M 885,945 l 230,-150 l 40,-160 h 80 l 50,160 l 220,160 h -620 Z" />
</svg>
