<?xml version="1.0" encoding="UTF-8" standalone="yes"?>
<!DOCTYPE svg PUBLIC "-//W3C//DTD SVG 1.0//EN" "http://www.w3.org/TR/2001/REC-SVG-20010904/DTD/svg10.dtd">
<svg viewBox="0 0 2560 960" style="fill-rule:evenodd;stroke-linecap:square;stroke-linejoin:round;stroke-width:10" height="100%" width="100%" xmlns="http://www.w3.org/2000/svg">
  <rect id="block-1" class="block" fill="#000000" x="0" y="0" width="2560" height="960" />
  <path id="area-1" class="area closed" fill="#00ff00" stroke="none" d="M 255,255 l -60,-60 l 60,-60 Z
M 315,255 l 60,-60 l -60,-60 Z
M 245,395 l -40,-40 v -80 l -80,-80 l 160,-160 l 160,160 l -80,80 v 80 l -40,40 v -120 h -80 Z" />
  <path id="area-2" class="area closed" fill="#00ff00" stroke="none" d="M 795,395 l -40,-40 v -80 l -80,-80 l 160,-160 l 160,160 l -80,80 v 80 l -40,40 v -120 h -80 Z
M 805,255 l -60,-60 l 60,-60 Z
M 865,255 l 60,-60 l -60,-60 Z" />
  <path id="area-3" class="area closed" fill="#00ff00" stroke="none" d="M 1345,395 l -40,-40 v -80 l -80,-80 l 160,-160 l 160,160 l -80,80 v 80 l -40,40 v -120 h -80 Z
M 1355,255 l -60,-60 l 60,-60 Z
M 1415,255 l 60,-60 l -60,-60 Z" />
  <path id="area-4" class="area closed" fill="#00ff00" stroke="none" d="M 1895,395 l -40,-40 v -80 l -80,-80 l 160,-160 l 160,160 l -80,80 v 80 l -40,40 v -120 h -80 Z
M 1905,255 l -60,-60 l 60,-60 Z
M 1965,255 l 60,-60 l -60,-60 Z" />
  <path id="area-5" class="area closed" fill="#ffff00" stroke="none" d="M 525,795 l -40,-40 v -80 l -80,-80 l 160,-160 l 160,160 l -80,80 v 80 l -40,40 v -120 h -80 Z
M 535,655 l -60,-60 l 60,-60 Z
M 595,655 l 60,-60 l -60,-60 Z" />
  <path id="area-6" class="area closed" fill="#ffff00" stroke="none" d="M 1075,795 l -40,-40 v -80 l -80,-80 l 160,-160 l 160,160 l -80,80 v 80 l -40,40 v -120 h -80 Z
M 1085,655 l -60,-60 l 60,-60 Z
M 1145,655 l 60,-60 l -60,-60 Z" />
  <path id="area-7" class="area closed" fill="#ffff00" stroke="none" d="M 1625,795 l -40,-40 v -80 l -80,-80 l 160,-160 l 160,160 l -80,80 v 80 l -40,40 v -120 h -80 Z
M 1635,655 l -60,-60 l 60,-60 Z
M 1695,655 l 60,-60 l -60,-60 Z" />
  <path id="area-8" class="area closed" fill="#ffff00" stroke="none" d="M 2175,795 l -40,-40 v -80 l -80,-80 l 160,-160 l 160,160 l -80,80 v 80 l -40,40 v -120 h -80 Z
M 2185,655 l -60,-60 l 60,-60 Z
M 2245,655 l 60,-60 l -60,-60 Z" />
  <path id="line-9" class="line closed" fill="none" stroke="#00ff00" d="M 235,385 l -30,-30 v -80 l -80,-80 l 160,-160 l 160,160 l -80,80 v 80 l -40,40 v -120 h -80 v 120 Z" />
  <path id="line-10" class="line closed" fill="none" stroke="#00ff00" d="M 245,245 l -50,-50 l 60,-60 v 110 Z" />
  <path id="line-11" class="line closed" fill="none" stroke="#00ff00" d="M 325,245 l 50,-50 l -60,-60 v 110 Z" />
  <path id="line-12" class="line closed" fill="none" stroke="#00ff00" d="M 785,385 l -30,-30 v -80 l -80,-80 l 160,-160 l 160,160 l -80,80 v 80 l -40,40 v -120 h -80 v 120 Z" />
  <path id="line-13" class="line closed" fill="none" stroke="#00ff00" d="M 795,245 l -50,-50 l 60,-60 v 110 Z" />
  <path id="line-14" class="line closed" fill="none" stroke="#00ff00" d="M 875,245 l 50,-50 l -60,-60 v 110 Z" />
  <path id="line-15" class="line closed" fill="none" stroke="#00ff00" d="M 1335,385 l -30,-30 v -80 l -80,-80 l 160,-160 l 160,160 l -80,80 v 80 l -40,40 v -120 h -80 v 120 Z" />
  <path id="line-16" class="line closed" fill="none" stroke="#00ff00" d="M 1345,245 l -50,-50 l 60,-60 v 110 Z" />
  <path id="line-17" class="line closed" fill="none" stroke="#00ff00" d="M 1425,245 l 50,-50 l -60,-60 v 110 Z" />
  <path id="line-18" class="line closed" fill="none" stroke="#00ff00" d="M 1885,385 l -30,-30 v -80 l -80,-80 l 160,-160 l 160,160 l -80,80 v 80 l -40,40 v -120 h -80 v 120 Z" />
  <path id="line-19" class="line closed" fill="none" stroke="#00ff00" d="M 1895,245 l -50,-50 l 60,-60 v 110 Z" />
  <path id="line-20" class="line closed" fill="none" stroke="#00ff00" d="M 1975,245 l 50,-50 l -60,-60 v 110 Z" />
  <path id="line-21" class="line closed" fill="none" stroke="#ffff00" d="M 515,785 l -30,-30 v -80 l -80,-80 l 160,-160 l 160,160 l -80,80 v 80 l -40,40 v -120 h -80 v 120 Z" />
  <path id="line-22" class="line closed" fill="none" stroke="#ffff00" d="M 525,645 l -50,-50 l 60,-60 v 110 Z" />
  <path id="line-23" class="line closed" fill="none" stroke="#ffff00" d="M 605,645 l 50,-50 l -60,-60 v 110 Z" />
  <path id="line-24" class="line closed" fill="none" stroke="#ffff00" d="M 1065,785 l -30,-30 v -80 l -80,-80 l 160,-160 l 160,160 l -80,80 v 80 l -40,40 v -120 h -80 v 120 Z" />
  <path id="line-25" class="line closed" fill="none" stroke="#ffff00" d="M 1075,645 l -50,-50 l 60,-60 v 110 Z" />
  <path id="line-26" class="line closed" fill="none" stroke="#ffff00" d="M 1155,645 l 50,-50 l -60,-60 v 110 Z" />
  <path id="line-27" class="line closed" fill="none" stroke="#ffff00" d="M 1615,785 l -30,-30 v -80 l -80,-80 l 160,-160 l 160,160 l -80,80 v 80 l -40,40 v -120 h -80 v 120 Z" />
  <path id="line-28" class="line closed" fill="none" stroke="#ffff00" d="M 1625,645 l -50,-50 l 60,-60 v 110 Z" />
  <path id="line-29" class="line closed" fill="none" stroke="#ffff00" d="M 1705,645 l 50,-50 l -60,-60 v 110 Z" />
  <path id="line-30" class="line closed" fill="none" stroke="#ffff00" d="M 2165,785 l -30,-30 v -80 l -80,-80 l 160,-160 l 160,160 l -80,80 v 80 l -40,40 v -120 h -80 v 120 Z" />
  <path id="line-31" class="line closed" fill="none" stroke="#ffff00" d="M 2175,645 l -50,-50 l 60,-60 v 110 Z" />
  <path id="line-32" class="line closed" fill="none" stroke="#ffff00" d="M 2255,645 l 50,-50 l -60,-60 v 110 Z" />
</svg>
