<?xml version="1.0" encoding="UTF-8" standalone="yes"?>
<!DOCTYPE svg PUBLIC "-//W3C//DTD SVG 1.0//EN" "http://www.w3.org/TR/2001/REC-SVG-20010904/DTD/svg10.dtd">
<svg viewBox="0 0 2560 960" style="fill-rule:evenodd;stroke-linecap:square;stroke-linejoin:round;stroke-width:10" height="100%" width="100%" xmlns="http://www.w3.org/2000/svg">
  <defs>
    <pattern id="fill-area-1" x="0" y="0" width="40" height="20" patternUnits="userSpaceOnUse">
      <rect fill="#c00000" x="0" y="10" width="10" height="10" />
      <rect fill="#c00000" x="10" y="0" width="10" height="10" />
      <rect fill="#c00000" x="20" y="10" width="20" height="10" />
    </pattern>
    <pattern id="fill-area-2" x="0" y="0" width="40" height="20" patternUnits="userSpaceOnUse">
      <rect fill="#000000" x="0" y="0" width="10" height="20" />
      <rect fill="#000000" x="20" y="0" width="10" height="20" />
    </pattern>
    <pattern id="pattern-line-5" width="2560" height="960" patternUnits="userSpaceOnUse">
      <rect id="pattern-line-5-1" class="pattern-line-5" fill="#c00000" x="0" y="0" width="2560" height="960" />
      <path id="pattern-line-5-2" class="pattern-line-5" fill="#0000c0" d="M 1540,430 h 20 l 10,-10 v -20 l -10,-10 h -10 v -20 l -310,-310 h -20 l -20,20 l 340,340 v 10" />
    </pattern>
  </defs>
  <rect id="block-1" class="block" fill="#c0c0c0" x="0" y="0" width="2560" height="960" />
  <path id="area-1" class="area closed" fill="url(#fill-area-1)" stroke="none" d="M 210,140 l 105,-65 l 400,-40 l 400,60 l 560,-60 l 640,160 l -30,400 l -80,270 l 235,25 l 25,-485 l 5,500 l 90,50 v -955 h -2560 v 950 l 5,5 l 135,-60 l 5,-490 l 20,475 l 160,-15 l -90,-390 Z" />
  <path id="area-2" class="area closed" fill="url(#fill-area-2)" stroke="none" d="M 820,835 l 405,-50 l 480,50 l 400,120 h -1490 Z" />
  <path id="line-3" class="line" fill="none" stroke="#c00000" d="M 5,945 v 10 l 160,-70 l 160,-20 l -90,-390 l -20,-330" />
  <path id="line-4" class="line" fill="none" stroke="#c00000" d="M 165,875 l -20,-470" />
  <path id="line-5" class="line" fill="none" stroke="url(#pattern-line-5)" d="M 85,225 l 230,-150 l 400,-40 l 400,60 l 560,-60 l 640,160 l -30,400 l -80,270 l 240,30 l 110,60" />
  <path id="line-6" class="line" fill="none" stroke="#c00000" d="M 2445,885 l 20,-480" />
  <path id="line-7" class="line" fill="none" stroke="#c00000" d="M 295,675 l 230,-110 l 400,-20" />
  <path id="line-8" class="line" fill="none" stroke="#c00000" d="M 1765,555 l 500,50" />
  <path id="line-9" class="line" fill="none" stroke="#c00000" d="M 1815,555 l 30,-300 l -40,-160" />
  <path id="line-10" class="line" fill="none" stroke="#c00000" d="M 515,555 l -20,-230 l 40,-200" />
  <path id="line-11" class="line" fill="none" stroke="#c00000" d="M 935,555 l 150,10 l 10,-200" />
  <path id="line-12" class="line" fill="none" stroke="#c00000" d="M 1075,275 l 60,-160" />
  <path id="line-13" class="line" fill="none" stroke="#c00000" d="M 1305,245 l 10,150 l -20,160 l 260,20 l 210,-10" />
  <path id="line-14" class="line closed" fill="#0000c0" stroke="#0000c0" d="M 1125,545 l 10,-230 l 90,-220 l 40,280 l -20,180 l -120,-10 Z" />
  <path id="line-15" class="line" fill="none" stroke="#000000" d="M 615,955 l 210,-120" />
  <path id="line-16" class="line" fill="none" stroke="#000000" d="M 835,835 l 390,-50 l 480,50 l 400,120 h -1470" />
</svg>
