<?xml version="1.0" encoding="UTF-8" standalone="yes"?>
<!DOCTYPE svg PUBLIC "-//W3C//DTD SVG 1.0//EN" "http://www.w3.org/TR/2001/REC-SVG-20010904/DTD/svg10.dtd">
<svg viewBox="0 0 2560 960" style="fill-rule:evenodd;stroke-linecap:square;stroke-linejoin:round;stroke-width:10" height="100%" width="100%" xmlns="http://www.w3.org/2000/svg">
  <rect id="block-1" class="block" fill="#0000ff" x="0" y="0" width="2560" height="80" />
  <rect id="block-2" class="block" fill="#ffff00" x="2240" y="80" width="320" height="80" />
  <rect id="block-3" class="block" fill="#ffff00" x="1440" y="80" width="480" height="80" />
  <rect id="block-4" class="block" fill="#ffff00" x="640" y="80" width="480" height="80" />
  <rect id="block-5" class="block" fill="#ffff00" x="0" y="80" width="320" height="80" />
  <rect id="block-6" class="block" fill="#0000ff" x="2320" y="160" width="240" height="80" />
  <rect id="block-7" class="block" fill="#0000ff" x="1520" y="160" width="320" height="80" />
  <rect id="block-8" class="block" fill="#0000ff" x="720" y="160" width="320" height="80" />
  <rect id="block-9" class="block" fill="#0000ff" x="0" y="160" width="240" height="80" />
  <path id="block-10" class="block" fill="#000000" d="M 1760,560 h 640 v -320 h -80 v -80 h -80 v -80 h -320 v 80 h -80 v 80 h -80 v 320" />
  <path id="block-11" class="block" fill="#000000" d="M 960,560 h 640 v -320 h -80 v -80 h -80 v -80 h -320 v 80 h -80 v 80 h -80 v 320" />
  <path id="block-12" class="block" fill="#000000" d="M 160,560 h 640 v -320 h -80 v -80 h -80 v -80 h -320 v 80 h -80 v 80 h -80 v 320" />
  <rect id="block-13" class="block" fill="#ffff00" x="2400" y="240" width="160" height="720" />
  <rect id="block-14" class="block" fill="#ff00ff" x="1760" y="560" width="640" height="400" />
  <rect id="block-15" class="block" fill="#ffff00" x="1600" y="240" width="160" height="720" />
  <rect id="block-16" class="block" fill="#ff00ff" x="960" y="560" width="640" height="400" />
  <rect id="block-17" class="block" fill="#ffff00" x="800" y="240" width="160" height="720" />
  <rect id="block-18" class="block" fill="#ff00ff" x="160" y="560" width="640" height="400" />
  <rect id="block-19" class="block" fill="#ffff00" x="0" y="240" width="160" height="720" />
  <path id="area-1" class="area closed" fill="#ff0000" stroke="none" d="M 1755,235 h 80 v -80 h 80 v -80 h 330 v 80 h 80 v 80 h 80 v 320 h -170 v -360 h -40 v -40 h -40 v -40 h -160 v 40 h -40 v 40 h -40 v 360 h -160 Z" />
  <path id="area-2" class="area closed" fill="#ff0000" stroke="none" d="M 955,235 h 80 v -80 h 80 v -80 h 330 v 80 h 80 v 80 h 80 v 320 h -160 v -360 h -40 v -40 h -40 v -40 h -160 v 40 h -40 v 40 h -40 v 360 h -170 Z" />
  <path id="area-3" class="area closed" fill="#ff0000" stroke="none" d="M 155,235 h 80 v -80 h 80 v -80 h 330 v 80 h 80 v 80 h 80 v 320 h -160 v -360 h -40 v -40 h -40 v -40 h -160 v 40 h -40 v 40 h -40 v 360 h -170 Z" />
  <path id="line-4" class="line" fill="none" stroke="#ff0000" d="M 155,245 v 710" />
  <path id="line-5" class="line" fill="none" stroke="#ff0000" d="M 165,235 h 70 v -80 h 80 v -80 h 170" />
  <path id="line-6" class="line" fill="none" stroke="#ff0000" d="M 495,75 h 150 v 80 h 80 v 80 h 80 v 720" />
  <path id="line-7" class="line" fill="none" stroke="#ff0000" d="M 955,245 v 710" />
  <path id="line-8" class="line" fill="none" stroke="#ff0000" d="M 965,235 h 70 v -80 h 80 v -80 h 170" />
  <path id="line-9" class="line" fill="none" stroke="#ff0000" d="M 1295,75 h 150 v 80 h 80 v 80 h 80 v 720" />
  <path id="line-10" class="line" fill="none" stroke="#ff0000" d="M 1755,245 v 710" />
  <path id="line-11" class="line" fill="none" stroke="#ff0000" d="M 1765,235 h 70 v -80 h 80 v -80 h 170" />
  <path id="line-12" class="line" fill="none" stroke="#ff0000" d="M 2095,75 h 150 v 80 h 80 v 80 h 80 v 720" />
  <path id="line-13" class="line" fill="none" stroke="#ff0000" d="M 165,555 h 150" />
  <path id="line-14" class="line" fill="none" stroke="#ff0000" d="M 325,205 v 350" />
  <path id="line-15" class="line" fill="none" stroke="#ff0000" d="M 335,195 h 30 v -40 h 40 v -40 h 85" />
  <path id="line-16" class="line" fill="none" stroke="#ff0000" d="M 495,115 h 70 v 40 h 40 v 40 h 40 v 360" />
  <path id="line-17" class="line" fill="none" stroke="#ff0000" d="M 655,555 h 150" />
  <path id="line-18" class="line" fill="none" stroke="#ff0000" d="M 965,555 h 150" />
  <path id="line-19" class="line" fill="none" stroke="#ff0000" d="M 1125,205 v 350" />
  <path id="line-20" class="line" fill="none" stroke="#ff0000" d="M 1135,195 h 30 v -40 h 40 v -40 h 85" />
  <path id="line-21" class="line" fill="none" stroke="#ff0000" d="M 1295,115 h 70 v 40 h 40 v 40 h 40 v 360" />
  <path id="line-22" class="line" fill="none" stroke="#ff0000" d="M 1455,555 h 150" />
  <path id="line-23" class="line" fill="none" stroke="#ff0000" d="M 1755,555 h 150" />
  <path id="line-24" class="line" fill="none" stroke="#ff0000" d="M 1915,205 v 350" />
  <path id="line-25" class="line" fill="none" stroke="#ff0000" d="M 1925,195 h 30 v -40 h 40 v -40 h 85" />
  <path id="line-26" class="line" fill="none" stroke="#ff0000" d="M 2085,115 h 70 v 40 h 40 v 40 h 40 v 360" />
  <path id="line-27" class="line" fill="none" stroke="#ff0000" d="M 2245,555 h 150" />
  <path id="line-28" class="line" fill="none" stroke="#000000" d="M 5,1755 l 0,0" />
</svg>
