<?xml version="1.0" encoding="UTF-8" standalone="yes"?>
<!DOCTYPE svg PUBLIC "-//W3C//DTD SVG 1.0//EN" "http://www.w3.org/TR/2001/REC-SVG-20010904/DTD/svg10.dtd">
<svg viewBox="0 0 2560 960" style="fill-rule:evenodd;stroke-linecap:square;stroke-linejoin:round;stroke-width:10" height="100%" width="100%" xmlns="http://www.w3.org/2000/svg">
  <defs>
    <pattern id="pattern-line-13" width="2560" height="960" patternUnits="userSpaceOnUse">
      <rect id="pattern-line-13-1" class="pattern-line-13" fill="#000000" x="0" y="0" width="2560" height="960" />
      <path id="pattern-line-13-2" class="pattern-line-13" fill="#c000c0" d="M 800,960 h 160 l -400,-400 l 560,-560 v -10 h -160 l -560,560 l 400,400 v 10" />
    </pattern>
    <pattern id="pattern-line-14" width="2560" height="960" patternUnits="userSpaceOnUse">
      <rect id="pattern-line-14-1" class="pattern-line-14" fill="#c000c0" x="0" y="0" width="2560" height="960" />
      <path id="pattern-line-14-2" class="pattern-line-14" fill="#000000" d="M 0,480 l 330,-330 h 10 v -20 l -20,-20 l 120,-120 h -440 v 490" />
    </pattern>
    <pattern id="pattern-line-16" width="2560" height="960" patternUnits="userSpaceOnUse">
      <path id="pattern-line-16-1" class="pattern-line-16" fill="#000000" d="M 1480,960 h 1080 v -970 h -1800 l -120,120 l 840,840 v 10" />
      <path id="pattern-line-16-2" class="pattern-line-16" fill="#c000c0" d="M 0,960 h 1480 l -840,-840 l 120,-120 v -10 h -760 v 970" />
    </pattern>
    <pattern id="pattern-line-22" width="2560" height="960" patternUnits="userSpaceOnUse">
      <rect id="pattern-line-22-1" class="pattern-line-22" fill="#000000" x="0" y="0" width="2560" height="960" />
      <path id="pattern-line-22-2" class="pattern-line-22" fill="#c000c0" d="M 2400,960 h 160 l -400,-400 l 400,-400 v -160 l -560,560 l 400,400" />
    </pattern>
    <pattern id="pattern-line-23" width="2560" height="960" patternUnits="userSpaceOnUse">
      <path id="pattern-line-23-1" class="pattern-line-23" fill="#c000c0" d="M 1130,960 h 1430 v -970 h -520 l -120,120 l 20,20 v 20 l -810,810" />
      <path id="pattern-line-23-2" class="pattern-line-23" fill="#000000" d="M 0,960 h 1130 l 810,-810 v -20 l -20,-20 l 120,-120 h -2040 v 970" />
    </pattern>
    <pattern id="pattern-line-25" width="2560" height="960" patternUnits="userSpaceOnUse">
      <rect id="pattern-line-25-1" class="pattern-line-25" fill="#c000c0" x="0" y="0" width="2560" height="960" />
      <path id="pattern-line-25-2" class="pattern-line-25" fill="#000000" d="M 2550,430 h 10 v -440 h -200 l -120,120 l 310,310 v 10" />
    </pattern>
  </defs>
  <rect id="block-1" class="block" fill="#00c0c0" x="0" y="0" width="2560" height="80" />
  <rect id="block-2" class="block" fill="#0000c0" x="2240" y="80" width="320" height="80" />
  <rect id="block-3" class="block" fill="#0000c0" x="1440" y="80" width="480" height="80" />
  <rect id="block-4" class="block" fill="#0000c0" x="640" y="80" width="480" height="80" />
  <rect id="block-5" class="block" fill="#0000c0" x="0" y="80" width="320" height="80" />
  <rect id="block-6" class="block" fill="#00c0c0" x="2320" y="160" width="240" height="80" />
  <rect id="block-7" class="block" fill="#00c0c0" x="1520" y="160" width="320" height="80" />
  <rect id="block-8" class="block" fill="#00c0c0" x="720" y="160" width="320" height="80" />
  <rect id="block-9" class="block" fill="#00c0c0" x="0" y="160" width="240" height="80" />
  <path id="block-10" class="block" fill="#00c000" d="M 1760,560 h 640 v -320 h -80 v -80 h -80 v -80 h -320 v 80 h -80 v 80 h -80 v 320" />
  <path id="block-11" class="block" fill="#00c000" d="M 960,560 h 640 v -320 h -80 v -80 h -80 v -80 h -320 v 80 h -80 v 80 h -80 v 320" />
  <path id="block-12" class="block" fill="#00c000" d="M 160,560 h 640 v -320 h -80 v -80 h -80 v -80 h -320 v 80 h -80 v 80 h -80 v 320" />
  <rect id="block-13" class="block" fill="#0000c0" x="2400" y="240" width="160" height="720" />
  <rect id="block-14" class="block" fill="#c000c0" x="1760" y="560" width="640" height="400" />
  <rect id="block-15" class="block" fill="#0000c0" x="1600" y="240" width="160" height="720" />
  <rect id="block-16" class="block" fill="#c000c0" x="960" y="560" width="640" height="400" />
  <rect id="block-17" class="block" fill="#0000c0" x="800" y="240" width="160" height="720" />
  <rect id="block-18" class="block" fill="#c000c0" x="160" y="560" width="640" height="400" />
  <rect id="block-19" class="block" fill="#0000c0" x="0" y="240" width="160" height="720" />
  <path id="area-1" class="area closed" fill="#c000c0" stroke="none" d="M 2095,195 v 360 h -50 v -360 h -40 v -40 h -40 v -40 h -50 v -40 h 330 v 40 h -70 v 40 h -40 v 40 Z" />
  <path id="area-2" class="area closed" fill="#c000c0" stroke="none" d="M 490,75 h 155 v 40 h -70 v 40 h -40 v 40 h -40 v 360 h -50 v -360 h -40 v -40 h -40 v -40 h -50 v -40 Z" />
  <path id="area-3" class="area closed" fill="#000000" stroke="none" d="M 1115,195 v 360 h 320 v -360 h -40 v -40 h -40 v -40 h -160 v 40 h -40 v 40 Z" />
  <path id="line-4" class="line" fill="none" stroke="#000000" d="M 155,245 v 710" />
  <path id="line-5" class="line" fill="none" stroke="#000000" d="M 165,235 h 70 v -80 h 80 v -80 h 170" />
  <path id="line-6" class="line" fill="none" stroke="#000000" d="M 495,75 h 150 v 80 h 80 v 80 h 80 v 720" />
  <path id="line-7" class="line" fill="none" stroke="#000000" d="M 955,245 v 710" />
  <path id="line-8" class="line" fill="none" stroke="#000000" d="M 965,235 h 70 v -80 h 80 v -80 h 170" />
  <path id="line-9" class="line" fill="none" stroke="#000000" d="M 1295,75 h 150 v 80 h 80 v 80 h 80 v 720" />
  <path id="line-10" class="line" fill="none" stroke="#000000" d="M 1755,245 v 710" />
  <path id="line-11" class="line" fill="none" stroke="#000000" d="M 1765,235 h 70 v -80 h 80 v -80 h 170" />
  <path id="line-12" class="line" fill="none" stroke="#000000" d="M 2095,75 h 150 v 80 h 80 v 80 h 80 v 720" />
  <path id="line-13" class="line" fill="none" stroke="url(#pattern-line-13)" d="M 175,555 h 630" />
  <path id="line-14" class="line" fill="none" stroke="url(#pattern-line-14)" d="M 295,115 h 70 v 40 h 40 v 40 h 40 v 360" />
  <path id="line-15" class="line" fill="none" stroke="#c000c0" d="M 495,205 v 350" />
  <path id="line-16" class="line" fill="none" stroke="url(#pattern-line-16)" d="M 505,195 h 30 v -40 h 40 v -40 h 85" />
  <path id="line-17" class="line" fill="none" stroke="#000000" d="M 955,555 h 150" />
  <path id="line-18" class="line" fill="none" stroke="#000000" d="M 1115,205 v 350" />
  <path id="line-19" class="line" fill="none" stroke="#000000" d="M 1125,195 h 30 v -40 h 40 v -40 h 85" />
  <path id="line-20" class="line" fill="none" stroke="#000000" d="M 1285,115 h 70 v 40 h 40 v 40 h 40 v 360" />
  <path id="line-21" class="line" fill="none" stroke="#000000" d="M 1445,555 h 150" />
  <path id="line-22" class="line" fill="none" stroke="url(#pattern-line-22)" d="M 1775,555 h 630" />
  <path id="line-23" class="line" fill="none" stroke="url(#pattern-line-23)" d="M 1895,115 h 70 v 40 h 40 v 40 h 40 v 360" />
  <path id="line-24" class="line" fill="none" stroke="#c000c0" d="M 2095,205 v 350" />
  <path id="line-25" class="line" fill="none" stroke="url(#pattern-line-25)" d="M 2105,195 h 30 v -40 h 40 v -40 h 85" />
  <path id="line-26" class="line" fill="none" stroke="#000000" d="M 1425,555 h -310" />
</svg>
