<?xml version="1.0" encoding="UTF-8" standalone="yes"?>
<!DOCTYPE svg PUBLIC "-//W3C//DTD SVG 1.0//EN" "http://www.w3.org/TR/2001/REC-SVG-20010904/DTD/svg10.dtd">
<svg viewBox="0 0 2560 960" style="fill-rule:evenodd;stroke-linecap:square;stroke-linejoin:round;stroke-width:10" height="100%" width="100%" xmlns="http://www.w3.org/2000/svg">
  <defs>
    <pattern id="pattern-area-1" width="2560" height="960" patternUnits="userSpaceOnUse">
      <rect id="pattern-area-1-1" class="pattern-area-1" fill="#000000" x="0" y="0" width="2560" height="960" />
      <path id="pattern-area-1-2" class="pattern-area-1" fill="#ff0000" d="M 2420,960 h 140 v -970 h -60 l -500,500 v 50 l 420,420" />
    </pattern>
    <pattern id="fill-area-2" x="0" y="0" width="40" height="20" patternUnits="userSpaceOnUse">
      <rect fill="#000000" x="0" y="10" width="10" height="10" />
      <rect fill="#000000" x="10" y="0" width="10" height="10" />
      <rect fill="#000000" x="20" y="10" width="20" height="10" />
    </pattern>
    <pattern id="fill-area-5" x="0" y="0" width="40" height="20" patternUnits="userSpaceOnUse">
      <rect fill="#ff0000" x="0" y="0" width="10" height="10" />
      <rect fill="#ff0000" x="20" y="10" width="10" height="10" />
    </pattern>
    <pattern id="fill-area-6" x="0" y="0" width="40" height="20" patternUnits="userSpaceOnUse">
      <rect fill="#ff0000" x="0" y="0" width="10" height="10" />
      <rect fill="#ff0000" x="20" y="10" width="10" height="10" />
    </pattern>
    <pattern id="fill-area-7" x="0" y="0" width="40" height="20" patternUnits="userSpaceOnUse">
      <rect fill="#ff0000" x="0" y="0" width="10" height="10" />
      <rect fill="#ff0000" x="20" y="10" width="10" height="10" />
    </pattern>
    <pattern id="pattern-line-8" width="2560" height="960" patternUnits="userSpaceOnUse">
      <rect id="pattern-line-8-1" class="pattern-line-8" fill="#000000" x="0" y="0" width="2560" height="960" />
      <path id="pattern-line-8-2" class="pattern-line-8" fill="#ff0000" d="M 420,550 l 80,-80 l 10,10 l 490,-490 h -290 l -430,430 l 70,70 v 10 h 20 l 10,10 v 10 h 20 l 20,20 v 10" />
    </pattern>
    <pattern id="pattern-line-10" width="2560" height="960" patternUnits="userSpaceOnUse">
      <path id="pattern-line-10-1" class="pattern-line-10" fill="#ff0000" d="M 1220,880 h 20 l 490,-490 v -10 h 20 l 20,-20 l 10,10 l 20,-20 l 240,240 v 10 h 30 v -10 h 30 l 10,-10 v -10 h 20 v -10 h 20 l 40,-40 v -10 h 20 l 60,-60 v -10 h 20 l 270,-270 v -180 h -2190 l 830,830 v 20 l 10,10 h 10 v 30" />
      <path id="pattern-line-10-2" class="pattern-line-10" fill="#000000" d="M 0,960 h 2560 v -790 l -270,270 h -20 l -60,60 v 10 h -20 l -40,40 v 10 h -20 v 10 h -20 l -10,10 v 10 h -30 v 10 h -30 l -250,-250 l -20,20 l -10,-10 l -10,10 v 10 h -20 l -490,490 v 10 h -20 v -30 l -10,-10 h -10 v -20 l -830,-830 h -370 v 970" />
    </pattern>
    <pattern id="pattern-line-13" width="2560" height="960" patternUnits="userSpaceOnUse">
      <rect id="pattern-line-13-1" class="pattern-line-13" fill="#000000" x="0" y="0" width="2560" height="960" />
      <path id="pattern-line-13-2" class="pattern-line-13" fill="#ff0000" d="M 2410,960 h 150 v -970 l -560,560 l 410,410" />
    </pattern>
    <pattern id="pattern-line-14" width="2560" height="960" patternUnits="userSpaceOnUse">
      <path id="pattern-line-14-1" class="pattern-line-14" fill="#ff0000" d="M 1530,960 h 1030 v -970 h -1050 l 490,490 l -470,470 v 10" />
      <path id="pattern-line-14-2" class="pattern-line-14" fill="#000000" d="M 0,960 h 1530 l 470,-470 l -490,-490 v -10 h -1510 v 970" />
    </pattern>
  </defs>
  <rect id="block-1" class="block" fill="#ffff00" x="0" y="0" width="2560" height="960" />
  <path id="area-1" class="area closed" fill="url(#pattern-area-1)" stroke="none" d="M 525,560 l 470,15 l 1015,-30 l 20,-60 h -1520 Z" />
  <path id="area-2" class="area closed" fill="url(#fill-area-2)" stroke="none" d="M 2275,730 l 280,225 h -2550 l 285,-250 l 135,-60 l 120,-15 l -70,-290 l 75,235 v -10 l 445,10 l 985,-30 v 110 v -10 l 180,25 Z" />
  <path id="area-3" class="area closed" fill="#ff0000" stroke="none" d="M 1475,115 v 360 h -50 v -360 h -40 v -40 h -40 v -25 l 210,-25 v 50 h -40 v 40 Z" />
  <path id="area-4" class="area closed" fill="#ff0000" stroke="none" d="M 845,115 v 360 h -50 v -360 h -40 v -40 h -40 v -35 l 150,-15 l 60,5 v 45 h -40 v 40 Z" />
  <path id="area-5" class="area closed" fill="url(#fill-area-5)" stroke="none" d="M 2030,485 h -1515 l 1280,-10 h -320 v -360 h 40 v -40 h 40 v -40 h 70 l 440,110 l -25,300 Z" />
  <path id="area-6" class="area closed" fill="url(#fill-area-6)" stroke="none" d="M 845,115 v 360 h 580 v -360 h -40 v -40 h -40 v -25 l -180,20 l -240,-40 v 45 h -40 v 40 Z" />
  <path id="area-7" class="area closed" fill="url(#fill-area-7)" stroke="none" d="M 565,55 l 150,-15 v 35 h 40 v 40 h 40 v 360 h -290 l -30,-135 l -15,-220 Z" />
  <path id="line-8" class="line" fill="none" stroke="url(#pattern-line-8)" d="M 305,695 v 5 l 120,-55 l 120,-15 l -70,-290 l -15,-250" />
  <path id="line-9" class="line" fill="none" stroke="#000000" d="M 445,645 l -15,-350" />
  <path id="line-10" class="line" fill="none" stroke="url(#pattern-line-10)" d="M 395,165 l 170,-110 l 300,-30 l 300,45 l 420,-45 l 480,120 l -25,300 l -60,200 l 180,25 l 85,45" />
  <path id="line-11" class="line" fill="none" stroke="#000000" d="M 2165,655 l 15,-360" />
  <path id="line-12" class="line" fill="none" stroke="#000000" d="M 2255,715 l 300,240 h -2550 l 300,-260" />
  <path id="line-13" class="line" fill="none" stroke="url(#pattern-line-13)" d="M 545,565 l 450,10 l 1030,-30" />
  <path id="line-14" class="line" fill="none" stroke="url(#pattern-line-14)" d="M 2025,485 h -1510" />
  <path id="line-15" class="line" fill="none" stroke="#ff0000" d="M 525,475 h 630" />
  <path id="line-16" class="line" fill="none" stroke="#ff0000" d="M 645,35 h 70 v 40 h 40 v 40 h 40 v 360" />
  <path id="line-17" class="line" fill="none" stroke="#ff0000" d="M 845,125 v 350" />
  <path id="line-18" class="line" fill="none" stroke="#ff0000" d="M 855,115 h 30 v -40 h 40 v -40 h 85" />
  <path id="line-19" class="line" fill="none" stroke="#ff0000" d="M 1155,475 h 630" />
  <path id="line-20" class="line" fill="none" stroke="#ff0000" d="M 1275,35 h 70 v 40 h 40 v 40 h 40 v 360" />
  <path id="line-21" class="line" fill="none" stroke="#ff0000" d="M 1475,125 v 350" />
  <path id="line-22" class="line" fill="none" stroke="#ff0000" d="M 1485,115 h 30 v -40 h 40 v -40 h 85" />
  <path id="line-23" class="line" fill="none" stroke="#ff0000" d="M 1795,475 h 200" />
</svg>
