<?xml version="1.0" encoding="UTF-8" standalone="yes"?>
<!DOCTYPE svg PUBLIC "-//W3C//DTD SVG 1.0//EN" "http://www.w3.org/TR/2001/REC-SVG-20010904/DTD/svg10.dtd">
<svg viewBox="0 0 2560 960" style="fill-rule:evenodd;stroke-linecap:square;stroke-linejoin:round;stroke-width:10" height="100%" width="100%" xmlns="http://www.w3.org/2000/svg">
  <rect id="block-1" class="block" fill="#000000" x="0" y="0" width="2560" height="960" />
  <path id="area-1" class="area closed" fill="#ffff00" stroke="none" d="M 210,140 l 105,-65 l 400,-40 l 400,60 l 560,-60 l 640,160 l -30,400 l -80,270 l 235,25 l 25,-540 l 20,-350 h -2485 v 165 l 145,245 l 20,470 l 160,-15 l -90,-390 Z" />
  <path id="area-2" class="area closed" fill="#ffff00" stroke="none" d="M 2160,155 l 15,180 l -15,335 l -180,-25 l 60,-200 l 25,-300 l -390,-110 Z" />
  <path id="area-3" class="area closed" fill="#ffff00" stroke="none" d="M 445,645 l -20,-400 l -25,-85 l 60,-40 l 15,220 l 70,290 Z" />
  <path id="area-4" class="area closed" fill="#ffff00" stroke="none" d="M 690,455 l -5,-220 l -25,-90 l 50,-30 l 10,140 l 45,195 Z" />
  <path id="area-5" class="area closed" fill="#ffff00" stroke="none" d="M 1840,485 l 15,-260 l -30,-140 l -185,-50 l -175,20 l 310,80 l -15,200 l -40,135 Z" />
  <path id="area-6" class="area closed" fill="#ffffff" stroke="none" d="M 1160,495 l 20,-60 l 15,60 Z" />
  <path id="line-7" class="line" fill="none" stroke="#ffff00" d="M 5,945 v 10 l 160,-70 l 160,-20 l -90,-390 l -20,-330" />
  <path id="line-8" class="line" fill="none" stroke="#ffff00" d="M 165,875 l -20,-470" />
  <path id="line-9" class="line" fill="none" stroke="#ffff00" d="M 85,225 l 230,-150 l 400,-40 l 400,60 l 560,-60 l 640,160 l -30,400 l -80,270 l 240,30 l 110,60" />
  <path id="line-10" class="line" fill="none" stroke="#ffff00" d="M 2445,885 l 20,-480" />
  <path id="line-11" class="line" fill="none" stroke="#ffff00" d="M 2465,395 l 20,-390" />
  <path id="line-12" class="line" fill="none" stroke="#ffff00" d="M 135,395 l -130,-220" />
  <path id="line-13" class="line" fill="none" stroke="#ffff00" d="M 305,695 v 5 l 120,-55 l 120,-15 l -70,-290 l -15,-250" />
  <path id="line-14" class="line" fill="none" stroke="#ffff00" d="M 445,645 l -15,-350" />
  <path id="line-15" class="line" fill="none" stroke="#ffff00" d="M 395,165 l 170,-110 l 300,-30 l 300,45 l 420,-45 l 480,120 l -25,300 l -60,200 l 180,25 l 85,45" />
  <path id="line-16" class="line" fill="none" stroke="#ffff00" d="M 2165,655 l 15,-360" />
  <path id="line-17" class="line" fill="none" stroke="#ffff00" d="M 2175,295 l -10,-130" />
  <path id="line-18" class="line" fill="none" stroke="#ffff00" d="M 405,175 l 40,130" />
  <path id="line-19" class="line" fill="none" stroke="#ffff00" d="M 605,495 l 80,-35 l 80,-10 l -45,-195 l -10,-165" />
  <path id="line-20" class="line" fill="none" stroke="#ffff00" d="M 695,465 l -10,-230" />
  <path id="line-21" class="line" fill="none" stroke="#ffff00" d="M 665,145 l 110,-70 l 200,-20 l 200,30 l 280,-30 l 320,80 l -15,200 l -40,135 l 120,15 l 55,30" />
  <path id="line-22" class="line" fill="none" stroke="#ffff00" d="M 1845,465 l 10,-235" />
  <path id="line-23" class="line" fill="none" stroke="#ffff00" d="M 1855,225 l -30,-140" />
  <path id="line-24" class="line" fill="none" stroke="#ffff00" d="M 665,155 l 20,80" />
  <path id="line-25" class="line" fill="none" stroke="#ffff00" d="M 595,505 l -70,40" />
  <path id="line-26" class="line" fill="none" stroke="#ffff00" d="M 1905,515 l 100,60" />
  <path id="line-27" class="line closed" fill="#ffffff" stroke="#ffffff" d="M 1105,905 l 50,-190 h 50 l 50,200 h -150 Z" />
  <path id="line-28" class="line closed" fill="#ffffff" stroke="#ffffff" d="M 1145,625 l 20,-70 h 20 l 20,80 h -60 Z" />
  <path id="line-29" class="line closed" fill="none" stroke="#ffffff" d="M 1165,485 l 10,-30 h 10 l 10,40 h -30 Z" />
</svg>
