<?xml version="1.0" encoding="UTF-8" standalone="yes"?>
<!DOCTYPE svg PUBLIC "-//W3C//DTD SVG 1.0//EN" "http://www.w3.org/TR/2001/REC-SVG-20010904/DTD/svg10.dtd">
<svg viewBox="0 0 2560 960" style="fill-rule:evenodd;stroke-linecap:square;stroke-linejoin:round;stroke-width:10" height="100%" width="100%" xmlns="http://www.w3.org/2000/svg">
  <defs>
    <pattern id="pattern-line-1" width="2560" height="960" patternUnits="userSpaceOnUse">
      <rect id="pattern-line-1-1" class="pattern-line-1" fill="#ffffff" x="0" y="0" width="2560" height="960" />
      <path id="pattern-line-1-2" class="pattern-line-1" fill="#000000" d="M 1120,400 h 340 l 400,-400 v -10 h -1140 l 400,400 v 10" />
      <path id="pattern-line-1-3" class="pattern-line-1" fill="#000000" d="M 1680,560 h 880 v -570 h -330 l -550,550 v 20" />
      <path id="pattern-line-1-4" class="pattern-line-1" fill="#000000" d="M 0,560 h 880 l 10,-10 l -550,-550 v -10 h -340 v 570" />
    </pattern>
  </defs>
  <rect id="block-1" class="block" fill="#0000ff" x="2160" y="0" width="400" height="560" />
  <rect id="block-2" class="block" fill="#00ff00" x="1680" y="0" width="480" height="560" />
  <rect id="block-3" class="block" fill="#ff00ff" x="1440" y="0" width="240" height="560" />
  <rect id="block-4" class="block" fill="#ff00ff" x="880" y="0" width="240" height="560" />
  <rect id="block-5" class="block" fill="#ffff00" x="560" y="0" width="320" height="560" />
  <rect id="block-6" class="block" fill="#ff0000" x="0" y="0" width="560" height="560" />
  <path id="block-7" class="block" fill="#00ffff" d="M 0,960 h 2560 v -400 h -1120 v -560 h -320 v 560 h -1120 v 400" />
  <path id="line-1" class="line closed" fill="url(#pattern-line-1)" stroke="url(#pattern-line-1)" d="M 1695,555 h 860 v 400 h -2550 v -400 h 880 l 240,-160 h 320 l 240,160 Z" />
</svg>
