<?xml version="1.0" encoding="UTF-8" standalone="yes"?>
<!DOCTYPE svg PUBLIC "-//W3C//DTD SVG 1.0//EN" "http://www.w3.org/TR/2001/REC-SVG-20010904/DTD/svg10.dtd">
<svg viewBox="0 0 2560 960" style="fill-rule:evenodd;stroke-linecap:square;stroke-linejoin:round;stroke-width:10" height="100%" width="100%" xmlns="http://www.w3.org/2000/svg">
  <defs>
    <pattern id="fill-area-1" x="0" y="0" width="40" height="20" patternUnits="userSpaceOnUse">
      <rect fill="#000000" x="0" y="10" width="40" height="10" />
    </pattern>
  </defs>
  <rect id="block-1" class="block" fill="#00ffff" x="1840" y="0" width="320" height="320" />
  <path id="block-2" class="block" fill="#ff00ff" d="M 1680,400 h 640 v -400 h -160 v 320 h -320 v -320 h -160 v 400" />
  <path id="block-3" class="block" fill="#ff0000" d="M 1600,480 h 800 v -480 h -80 v 400 h -640 v -400 h -80 v 480" />
  <rect id="block-4" class="block" fill="#00ff00" x="0" y="0" width="800" height="800" />
  <path id="block-5" class="block" fill="#ffffff" d="M 0,960 h 2560 v -960 h -160 v 480 h -800 v -480 h -800 v 800 h -800 v 160" />
  <path id="area-1" class="area closed" fill="url(#fill-area-1)" stroke="none" d="M 1435,565 h 1125 l -5,390 h -1590 Z" />
  <path id="area-2" class="area closed" fill="#0000ff" stroke="none" d="M 0,0 h 680 l -275,275 l -160,-160 l -240,490 v -80 l -5,435 Z" />
  <path id="line-3" class="line" fill="none" stroke="#000000" d="M 965,15 v 940 l 470,-390 v -560" />
  <path id="line-4" class="line" fill="none" stroke="#000000" d="M 1445,565 h 150" />
  <path id="line-5" class="line" fill="none" stroke="#000000" d="M 975,955 h 1580 v -300" />
  <path id="line-6" class="line" fill="none" stroke="#000000" d="M 1605,565 h 950" />
  <path id="line-7" class="line" fill="none" stroke="#0000ff" d="M 5,595 v -70" />
  <path id="line-8" class="line" fill="none" stroke="#0000ff" d="M 15,585 l 230,-470 l 160,160 l 270,-270" />
</svg>
