<?xml version="1.0" encoding="UTF-8" standalone="yes"?>
<!DOCTYPE svg PUBLIC "-//W3C//DTD SVG 1.0//EN" "http://www.w3.org/TR/2001/REC-SVG-20010904/DTD/svg10.dtd">
<svg viewBox="0 0 2560 960" style="fill-rule:evenodd;stroke-linecap:square;stroke-linejoin:round;stroke-width:10" height="100%" width="100%" xmlns="http://www.w3.org/2000/svg">
  <defs>
    <pattern id="fill-area-1" x="0" y="0" width="40" height="20" patternUnits="userSpaceOnUse">
      <rect fill="#0000ff" x="0" y="10" width="10" height="10" />
      <rect fill="#0000ff" x="10" y="0" width="10" height="10" />
      <rect fill="#0000ff" x="20" y="10" width="10" height="10" />
    </pattern>
    <pattern id="fill-area-2" x="0" y="0" width="40" height="20" patternUnits="userSpaceOnUse">
      <rect fill="#0000ff" x="0" y="10" width="40" height="10" />
    </pattern>
  </defs>
  <path id="block-1" class="block" fill="#ff0000" d="M 1600,640 h 960 v -400 h -1040 v 80 h 80 v 320" />
  <path id="block-2" class="block" fill="#ffff00" d="M 800,960 h 1760 v -320 h -960 v -320 h -80 v -80 h 1040 v -240 h -2560 v 560 h 960 v 160 h -160 v 240" />
  <path id="block-3" class="block" fill="#ff0000" d="M 0,960 h 800 v -240 h 160 v -160 h -960 v 400" />
  <path id="area-1" class="area closed" fill="url(#fill-area-1)" stroke="none" d="M 965,10 v 945 l 470,-390 v -565 h -465 Z" />
  <path id="area-2" class="area closed" fill="url(#fill-area-2)" stroke="none" d="M 2550,635 h -945 v -70 h -170 l -470,390 h 1590 l 5,-640 h -10 Z" />
  <path id="line-3" class="line" fill="none" stroke="#0000ff" d="M 965,15 v 940 l 470,-390 v -560" />
  <path id="line-4" class="line" fill="none" stroke="#0000ff" d="M 1445,565 h 150" />
  <path id="line-5" class="line" fill="none" stroke="#0000ff" d="M 975,955 h 1580 v -300" />
  <path id="line-6" class="line" fill="none" stroke="#0000ff" d="M 955,725 h -950" />
  <path id="line-7" class="line" fill="none" stroke="#0000ff" d="M 2545,245 h -1020 v 70 h 1030" />
  <path id="line-8" class="line" fill="none" stroke="#0000ff" d="M 2545,635 h -940 v -320" />
  <path id="line-9" class="line closed" fill="none" stroke="#0000ff" d="M 1695,575 v -230 h 200 v 240 h -200 Z" />
  <path id="line-10" class="line closed" fill="none" stroke="#0000ff" d="M 1995,575 v -230 h 200 v 240 h -200 Z" />
  <path id="line-11" class="line closed" fill="none" stroke="#0000ff" d="M 2295,575 v -230 h 200 v 240 h -200 Z" />
</svg>
