<?xml version="1.0" encoding="UTF-8" standalone="yes"?>
<!DOCTYPE svg PUBLIC "-//W3C//DTD SVG 1.0//EN" "http://www.w3.org/TR/2001/REC-SVG-20010904/DTD/svg10.dtd">
<svg viewBox="0 0 2560 960" style="fill-rule:evenodd;stroke-linecap:square;stroke-linejoin:round;stroke-width:10" height="100%" width="100%" xmlns="http://www.w3.org/2000/svg">
  <rect id="block-1" class="block" fill="#00ff00" x="0" y="0" width="2560" height="320" />
  <rect id="block-2" class="block" fill="#00ffff" x="0" y="320" width="2560" height="240" />
  <rect id="block-3" class="block" fill="#00ff00" x="0" y="560" width="2560" height="400" />
  <path id="area-1" class="area closed" fill="#ff0000" stroke="none" d="M 2310,785 h -35 l 40,-90 l 25,-290 l -40,-160 l 30,15 l 25,60 l 35,-155 l 55,-45 l -45,180 l 5,80 l 10,285 l 20,70 l 70,50 h -60 l -75,-50 Z" />
  <path id="area-2" class="area closed" fill="#ff0000" stroke="none" d="M 240,785 h -35 l 40,-90 l 25,-290 l -40,-160 l 30,15 l 25,60 l 35,-155 l 55,-45 l -45,180 l 5,80 l 10,285 l 20,70 l 70,50 h -60 l -75,-50 Z" />
  <path id="area-3" class="area closed" fill="#ff0000" stroke="none" d="M 1170,765 h -35 l 40,-90 l 25,-290 l -40,-160 l 30,15 l 25,60 l 35,-155 l 55,-45 l -45,180 l 5,80 l 10,285 l 20,70 l 70,50 h -60 l -75,-50 Z" />
  <path id="area-4" class="area closed" fill="#ff0000" stroke="none" d="M 925,630 l 20,-240 l -30,-135 l 25,15 l 20,50 l 30,-130 l 45,-40 l -40,150 l 5,70 l 10,235 l 15,60 l 60,40 h -50 l -110,-75 Z" />
  <path id="line-5" class="line closed" fill="#ff0000" stroke="#ff0000" d="M 425,945 l 60,-120 l 30,-390 l -50,-210 l 40,20 l 30,80 l 50,-210 l 70,-60 l -60,240 l 10,110 l 10,380 l 30,90 l 90,70 h -80 l -100,-70 l -80,70 h -60 Z" />
  <path id="line-6" class="line closed" fill="#ff0000" stroke="#ff0000" d="M 1875,945 l 60,-120 l 30,-390 l -50,-210 l 40,20 l 30,80 l 50,-210 l 70,-60 l -60,240 l 10,110 l 10,380 l 30,90 l 90,70 h -80 l -100,-70 l -80,70 h -60 Z" />
  <path id="line-7" class="line" fill="none" stroke="#ff0000" d="M 2275,785 l 40,-90 l 25,-290 l -40,-160 l 30,15 l 25,60 l 35,-155 l 55,-45 l -45,180 l 5,80 l 10,285 l 20,70 l 70,50 h -60 l -75,-50 l -60,50 h -45" />
  <path id="line-8" class="line" fill="none" stroke="#ff0000" d="M 205,785 l 40,-90 l 25,-290 l -40,-160 l 30,15 l 25,60 l 35,-155 l 55,-45 l -45,180 l 5,80 l 10,285 l 20,70 l 70,50 h -60 l -75,-50 l -60,50 h -45" />
  <path id="line-9" class="line closed" fill="#00ffff" stroke="#00ffff" d="M 645,335 l 70,70 h 80 l 80,-80 l -90,-20 l -20,-50 l -30,50 l -90,30 Z" />
  <path id="line-10" class="line closed" fill="#00ffff" stroke="#00ffff" d="M 1545,325 l 70,70 h 80 l 80,-80 l -90,-20 l -20,-50 l -30,50 l -90,30 Z" />
  <path id="line-11" class="line" fill="none" stroke="#ff0000" d="M 1135,765 l 40,-90 l 25,-290 l -40,-160 l 30,15 l 25,60 l 35,-155 l 55,-45 l -45,180 l 5,80 l 10,285 l 20,70 l 70,50 h -60 l -75,-50 l -60,50 h -45" />
  <path id="line-12" class="line" fill="none" stroke="#ff0000" d="M 895,705 l 30,-75 l 20,-240 l -30,-135 l 25,15 l 20,50 l 30,-130 l 45,-40 l -40,150 l 5,70 l 10,235 l 15,60 l 60,40 h -50 l -65,-40 l -50,40 h -35" />
</svg>
