<?xml version="1.0" encoding="UTF-8" standalone="yes"?>
<!DOCTYPE svg PUBLIC "-//W3C//DTD SVG 1.0//EN" "http://www.w3.org/TR/2001/REC-SVG-20010904/DTD/svg10.dtd">
<svg viewBox="0 0 2560 960" style="fill-rule:evenodd;stroke-linecap:square;stroke-linejoin:round;stroke-width:10" height="100%" width="100%" xmlns="http://www.w3.org/2000/svg">
  <rect id="block-1" class="block" fill="#000000" x="0" y="0" width="2560" height="960" />
  <path id="line-1" class="line" fill="none" stroke="#c0c0c0" d="M 325,955 l 50,-60 l 70,-30 l 70,10 l 45,70" />
  <path id="line-2" class="line" fill="none" stroke="#c0c0c0" d="M 495,865 l 25,-45 l 70,-25 l 70,10 l 50,35" />
  <path id="line-3" class="line" fill="none" stroke="#c0c0c0" d="M 645,895 l 40,-55 l 55,-35 l 40,-5 h 35 l 45,25 l 35,35" />
  <path id="line-4" class="line" fill="none" stroke="#c0c0c0" d="M 485,825 l -20,-20 l -50,-15 l -80,10 l -45,40" />
  <path id="line-5" class="line" fill="none" stroke="#c0c0c0" d="M 1585,895 l 40,-50 l 60,-25 l 60,10 l 40,60" />
  <path id="line-6" class="line" fill="none" stroke="#c0c0c0" d="M 1725,815 l 20,-35 l 60,-25 l 60,10 l 45,30" />
  <path id="line-7" class="line" fill="none" stroke="#c0c0c0" d="M 1855,845 l 35,-45 l 45,-30 l 35,-5 h 30 l 40,20 l 30,30" />
  <path id="line-8" class="line" fill="none" stroke="#c0c0c0" d="M 1705,785 l -15,-15 l -45,-15 l -65,10 l -40,35" />
  <path id="line-9" class="line" fill="none" stroke="#c000c0" d="M 645,755 l 25,-30 l 40,-15 l 40,5 l 25,40" />
  <path id="line-10" class="line" fill="none" stroke="#c000c0" d="M 735,705 l 10,-20 l 40,-15 l 40,5 l 30,20" />
  <path id="line-11" class="line" fill="none" stroke="#c000c0" d="M 825,725 l 20,-25 l 30,-20 l 25,-5 h 20 l 25,15 l 20,20" />
  <path id="line-12" class="line" fill="none" stroke="#c000c0" d="M 725,685 l -5,-5 l -30,-10 l -45,5 l -25,25" />
  <path id="line-13" class="line" fill="none" stroke="#c000c0" d="M 1555,575 l 15,-20 l 30,-15 l 30,5 l 20,30" />
  <path id="line-14" class="line" fill="none" stroke="#c000c0" d="M 1615,535 l 5,-15 l 30,-10 l 30,5 l 20,15" />
  <path id="line-15" class="line" fill="none" stroke="#c000c0" d="M 1675,545 l 10,-20 l 25,-15 h 15 h 15 l 20,10 l 15,15" />
  <path id="line-16" class="line" fill="none" stroke="#c000c0" d="M 1575,525 l -5,-5 l -20,-5 l -35,5 l -20,15" />
  <path id="line-17" class="line closed" fill="#c0c0c0" stroke="#c0c0c0" d="M 1675,425 l 50,-150 l 110,40 l 40,110 l -100,20 l -100,-20 Z" />
</svg>
