<?xml version="1.0" encoding="UTF-8" standalone="yes"?>
<svg viewBox="0 0 2560 960" style="stroke-linejoin:round;stroke-width:10" height="100%" width="100%" xmlns="http://www.w3.org/2000/svg">

  <!-- background -->
  <rect id="sky" fill="#00ffff" x="0" y="0" width="2560" height="960" />
  <path id="leaves" style="fill:#00ff00" d="M 0,0 v 320 h 850 c 160,0 330,-100 430,-200 c 100,100 330,200 430,200 h 850 v -320 Z" />
  <path id="grass" fill="#00ff00" d="M 0,560 h 1045 l 160,160 l 210,0 l 160,-160 h 985 v 400 h -2560 Z" />

  <!-- trees -->
  <path id="tree1" fill="#ff0000" stroke="#ff0000" d="M 205,785 l 45,-90 l 22.5,-292.5 l -37.5,-157.5 l 30,15 l 22.5,60 l 37.5,-157.5 l 52.5,-45 l -45,180 l 7.5,82.5 l 7.5,285 l 22.5,67.5 l 67.5,52.5 l -60,0 l -75,-52.5 l -60,52.5 Z" />
  <path id="tree2" fill="#ff0000" stroke="#ff0000" d="M 425,945 l 60,-120 l 30,-390 l -50,-210 l 40,20 l 30,80 l 50,-210 l 70,-60 l -60,240 l 10,110 l 10,380 l 30,90 l 90,70 l -80,0 l -100,-70 l -80,70 Z" />
  <path id="tree3" fill="#ff0000" stroke="#ff0000" d="M 1875,945 l 60,-120 l 30,-390 l -50,-210 l 40,20 l 30,80 l 50,-210 l 70,-60 l -60,240 l 10,110 l 10,380 l 30,90 l 90,70 l -80,0 l -100,-70 l -80,70 Z" />
  <path id="tree4" fill="#ff0000" stroke="#ff0000" d="M 2275,785 l 45,-90 l 22.5,-292.5 l -37.5,-157.5 l 30,15 l 22.5,60 l 37.5,-157.5 l 52.5,-45 l -45,180 l 7.5,82.5 l 7.5,285 l 22.5,67.5 l 67.5,52.5 l -60,0 l -75,-52.5 l -60,52.5 Z" />

  <!-- gully -->
  <path id="gully1" fill="none" stroke="#0000ff" d="M 895,585 l 112.5,15 l 127.5,142.5 l 187.5,22.5 l 180,-22.5 l 127.5,-142.5 l 112,-15" />
  <path id="gully2" fill="none" stroke="#0000ff" d="M 825,655 l 130,10 l 150,166 l 200,25 l 200,-25 l 150,-166 l 130,-10" />
  <path id="gully3" fill="none" stroke="#0000ff" d="M 755,705 l 150,20 l 170,190 l 250,30 l 240,-30 l 180,-200 l 130,-20" />

  <!-- stream -->
  <path id="stream" fill="#0000ff" stroke="none" d="M 1140,960 l 120,-120 l 100,0 l 120,120 Z" />
  <path id="slit" fill="none" stroke="#0000ff" d="M 1200,840 l 105,-25 l 105,25" />

</svg>
