<?xml version="1.0" encoding="UTF-8" standalone="yes"?>
<svg viewBox="0 0 2560 960" style="stroke-linecap:square;stroke-linejoin:bevel;stroke-width:10" height="100%" width="100%" xmlns="http://www.w3.org/2000/svg">
  <defs>
    <pattern id="fill-far-wall" x="0" y="0" width="40" height="20" patternUnits="userSpaceOnUse">
      <rect fill="#0000c0" x="0" y="0" width="40" height="20" />
      <rect fill="#c0c000" x="0" y="0" width="10" height="10" />
      <rect fill="#c0c000" x="20" y="10" width="10" height="10" />
    </pattern>
    <pattern id="fill-chasm" width="20" height="1" patternUnits="userSpaceOnUse">
      <rect fill="#c000c0" x="0" y="0" width="20" height="1" />
      <rect fill="#000000" x="0" y="0" width="10" height="1" />
    </pattern>
  </defs>

  <!-- far wall -->
  <rect id="far-wall" x="0" y="0" width="2560" height="560" stroke="none" fill="url(#fill-far-wall)" />
  <path id="far-ceiling" fill="none" stroke="#c0c000" d="M 0,5 h 2555" stroke-width="11" />
  <path id="skirting-board" fill="none" stroke="#c0c000" d="M 2545,555 h -2540" />

  <!-- pillars -->
  <path id="pillar-1" fill="#c0c000" stroke="#c0c000" d="M 485,105 v 460 h -70 v -460 h -50 v -50 h -50 v -50 h 270 v 50 h -50 v 50 Z" />
  <path id="pillar-2" fill="#c0c000" stroke="#c0c000" d="M 1325,105 v 460 h -70 v -460 h -50 v -50 h -50 v -50 h 270 v 50 h -50 v 50 Z" />
  <path id="pillar-3" fill="#c0c000" stroke="#c0c000" d="M 2165,105 v 460 h -70 v -460 h -50 v -50 h -50 v -50 h 270 v 50 h -50 v 50 Z" />

  <!-- background -->
  <rect id="floor" fill="#c000c0" x="0" y="560" width="2560" height="400" />
  <path id="wall-floor-boundary" fill="none" stroke="#000000" d="M 5,565 h 2550" />
  <path id="chasm" fill="url(#fill-chasm)" stroke="#000000" d="M 2545,715 l -470,-60 l -2070,-60 v 80 l 880,130 l 480,150 h 1190 Z" />

</svg>
