<?xml version="1.0" encoding="UTF-8" standalone="yes"?>
<svg viewBox="0 0 2560 960" style="fill-rule:evenodd;stroke-width:10" height="100%" width="100%" xmlns="http://www.w3.org/2000/svg">

  <!-- Versions of this image with dead space invaders are generated in script/kill-space-invaders.pl -->

  <!-- background -->
  <rect id="bg" x="0" y="0" width="2560" height="960" fill="#000000"/>

  <!-- invaders -->
  <path id="invader-1" fill="#00ff00" stroke="#00ff00" d="M 235,385 l -30,-30 l 0,-80 l -80,-80 l 160,-160 l 160,160 l -80,80 l 0,80 l -40,40 l 0,-120 l -80,0 l 0,120 Z M 245,245 l -50,-50 l 60,-60 l 0,110 Z M 325,245 l 50,-50 l -60,-60 l 0,110 Z" />

  <path id="invader-2" fill="#00ff00" stroke="#00ff00" d="M 785,385 l -30,-30 l 0,-80 l -80,-80 l 160,-160 l 160,160 l -80,80 l 0,80 l -40,40 l 0,-120 l -80,0 l 0,120 Z M 795,245 l -50,-50 l 60,-60 l 0,110 Z M 875,245 l 50,-50 l -60,-60 l 0,110 Z" />

  <path id="invader-3" fill="#00ff00" stroke="#00ff00" d="M 1335,385 l -30,-30 l 0,-80 l -80,-80 l 160,-160 l 160,160 l -80,80 l 0,80 l -40,40 l 0,-120 l -80,0 l 0,120 Z M 1345,245 l -50,-50 l 60,-60 l 0,110 Z M 1425,245 l 50,-50 l -60,-60 l 0,110 Z" />

  <path id="invader-4" fill="#00ff00" stroke="#00ff00" d="M 1885,385 l -30,-30 l 0,-80 l -80,-80 l 160,-160 l 160,160 l -80,80 l 0,80 l -40,40 l 0,-120 l -80,0 l 0,120 Z M 1895,245 l -50,-50 l 60,-60 l 0,110 Z M 1975,245 l 50,-50 l -60,-60 l 0,110 Z" />

  <path id="invader-5" fill="#ffff00" stroke="#ffff00" d="M 515,785 l -30,-30 l 0,-80 l -80,-80 l 160,-160 l 160,160 l -80,80 l 0,80 l -40,40 l 0,-120 l -80,0 l 0,120 Z M 525,645 l -50,-50 l 60,-60 l 0,110 Z M 605,645 l 50,-50 l -60,-60 l 0,110 Z" />

  <path id="invader-6" fill="#ffff00" stroke="#ffff00" d="M 1065,785 l -30,-30 l 0,-80 l -80,-80 l 160,-160 l 160,160 l -80,80 l 0,80 l -40,40 l 0,-120 l -80,0 l 0,120 Z M 1075,645 l -50,-50 l 60,-60 l 0,110 Z M 1155,645 l 50,-50 l -60,-60 l 0,110 Z" />

  <path id="invader-7" fill="#ffff00" stroke="#ffff00" d="M 1615,785 l -30,-30 l 0,-80 l -80,-80 l 160,-160 l 160,160 l -80,80 l 0,80 l -40,40 l 0,-120 l -80,0 l 0,120 Z M 1625,645 l -50,-50 l 60,-60 l 0,110 Z M 1705,645 l 50,-50 l -60,-60 l 0,110 Z" />

  <path id="invader-8" fill="#ffff00" stroke="#ffff00" d="M 2165,785 l -30,-30 l 0,-80 l -80,-80 l 160,-160 l 160,160 l -80,80 l 0,80 l -40,40 l 0,-120 l -80,0 l 0,120 Z M 2175,645 l -50,-50 l 60,-60 l 0,110 Z M 2255,645 l 50,-50 l -60,-60 l 0,110 Z" />

</svg>
