<?xml version="1.0" encoding="UTF-8" standalone="yes"?>
<svg viewBox="0 0 2560 960" style="stroke-width:10" height="100%" width="100%" xmlns="http://www.w3.org/2000/svg">

  <defs>
    <pattern id="fill-rear-wall" x="0" y="0" width="40" height="20" patternUnits="userSpaceOnUse">
      <rect x="0" y="0" fill="#000000" width="40" height="20" />
      <rect x="5" y="0" fill="#c0c000" width="30" height="10" />
    </pattern>
    <pattern id="fill-left-wall" x="0" y="0" width="40" height="20" patternUnits="userSpaceOnUse">
      <rect x="0" y="0" fill="#c00000" width="40" height="20" />
      <rect x="0" y="10" fill="#000000" width="20" height="10" />
    </pattern>
    <pattern id="fill-right-wall" x="0" y="0" width="40" height="20" patternUnits="userSpaceOnUse">
      <rect x="0" y="0" fill="#c00000" width="40" height="20" />
      <rect x="20" y="10" fill="#000000" width="20" height="10" />
    </pattern>
  </defs>

  <!-- background -->
  <path id="left-wall" fill="url(#fill-left-wall)" stroke="none" d="M 0,960 l 885,-480 v -480 h -885 Z" />
  <path id="right-wall" fill="url(#fill-right-wall)" stroke="none" d="M 2560,960 l -885,-480 v -480 h 885 Z" />
  <path id="rear-wall" fill="url(#fill-rear-wall)" stroke="#000000" d="M 885,0 v 475 h 790 v -475" />
  <path id="floor" fill="#c00000" stroke="#000000" d="M 0,960 l 885,-485 h 790 l 885,485" />

  <!-- top of the spring -->
  <path id="spring-top-main" fill="#00c0c0" stroke="#00c0c0" d="M 1025,565 c 0,10 130,40 150,50 c 20,10 140,10 160,0 c 20,-10 160,-40 160,-50 c 0,-10 -160,-20 -160,-20 c -20,-5 -140,-5 -160,0 c 0,0 -150,10 -150,20 Z" />
  <path id="spring-top-centre" fill="#0000c0" stroke="none" d="M 1100,575 c 0,10 65,15 75,20 c 10,5 140,5 150,0 c 10,-5 75,-10 75,-20 c 0,-5 -55,-5 -75,-10 c -20,-5 -130,-5 -150,0 c -20,5 -75,5 -75,10 Z" />

  <!-- body of the spring -->
  <path id="spring-row-1" fill="#00c0c0" stroke="#00c0c0" d="M 975,665 c 20,10 180,50 200,60 c 20,10 140,10 160,0 c 20,-10 180,-50 200,-60 c 20,-20 20,-20 20,-40 c 0,-20 -10,-40 -20,-40 c -20,0 -180,50 -200,60 c -20,10 -140,10 -160,0 c -20,-10 -180,-60 -200,-60 c -10,0 -20,20 -20,40 c 0,20 10,30 20,40 Z" />
  <path id="spring-row-2" fill="#00c0c0" stroke="#00c0c0" d="M 975,775 c 20,10 180,50 200,60 c 20,10 140,10 160,0 c 20,-10 180,-50 200,-60 c 20,-20 20,-20 20,-40 c 0,-20 -10,-40 -20,-40 c -20,0 -180,50 -200,60 c -20,10 -140,10 -160,0 c -20,-10 -180,-60 -200,-60 c -10,0 -20,20 -20,40 c 0,20 10,30 20,40 Z" />
  <path id="spring-row-3" fill="#00c0c0" stroke="#00c0c0" d="M 975,885 c 20,10 180,50 200,60 c 20,10 140,10 160,0 c 20,-10 180,-50 200,-60 c 20,-20 20,-20 20,-40 c 0,-20 -10,-40 -20,-40 c -20,0 -180,50 -200,60 c -20,10 -140,10 -160,0 c -20,-10 -180,-60 -200,-60 c -10,0 -20,20 -20,40 c 0,20 10,30 20,40 Z" />

</svg>
