<?xml version="1.0" encoding="UTF-8" standalone="yes"?>
<!DOCTYPE svg PUBLIC "-//W3C//DTD SVG 1.0//EN" "http://www.w3.org/TR/2001/REC-SVG-20010904/DTD/svg10.dtd">
<svg viewBox="0 0 2560 960" style="stroke-linecap:square;stroke-width:10" height="100%" width="100%" xmlns="http://www.w3.org/2000/svg">
  <defs>
    <pattern id="fill-archway-wall" x="0" y="0" width="40" height="20" patternUnits="userSpaceOnUse">
      <rect fill="#c0c000" x="0" y="0" width="40" height="20" />
      <rect fill="#0000c0" x="0" y="10" width="40" height="10" />
    </pattern>
    <pattern id="fill-far-wall" x="0" y="0" width="20" height="20" patternUnits="userSpaceOnUse">
      <rect fill="#c0c000" x="0" y="0" width="40" height="20" />
      <rect fill="#0000c0" x="0" y="10" width="10" height="10" />
    </pattern>
    <pattern id="fill-rock-1" x="0" y="0" width="1" height="20" patternUnits="userSpaceOnUse">
      <rect fill="#0000c0" x="0" y="10" width="1" height="10" />
    </pattern>
    <pattern id="fill-rock-2" x="0" y="0" width="1" height="20" patternUnits="userSpaceOnUse">
      <rect fill="#c00000" x="0" y="10" width="1" height="10" />
    </pattern>
    <pattern id="fill-rock-3" x="0" y="0" width="1" height="20" patternUnits="userSpaceOnUse">
      <rect fill="#00c000" x="0" y="10" width="1" height="10" />
    </pattern>
  </defs>

  <rect id="floor" fill="#c0c000" x="0" y="0" width="2560" height="960" />

  <!-- far wall -->
  <path id="far-wall" fill="url(#fill-far-wall)" stroke="none" d="M 520,640 l -25,-235 l -5,25 v 230 l -195,90 l -60,-275 l -25,-335 l 105,-65 l 400,-40 l 400,60 l 560,-60 l 640,160 l -30,400 l -30,85 l -405,-40 v -285 l -5,-20 l -35,300 h -50 l -405,10 l 70,-170 l -20,-240 l -260,-50 l -90,10 l -160,50 l -30,240 l 60,135 l -400,25 Z" />
  <path id="far-wall-left-edge" fill="none" stroke="#0000c0" d="M 295,755 l 230,-110 l 400,-20 M 520,640 l -25,-235 l 40,-200" />
  <path id="far-wall-right-edge" fill="none" stroke="#0000c0" d="M 1365,645 l 400,-10 l 500,50 M 1815,635 l 30,-300 l -40,-160" />

  <!-- near wall -->
  <path id="near-wall" fill="#c0c000" stroke="none" d="M 210,140 l 105,-65 l 400,-40 l 400,60 l 560,-60 l 640,160 l -30,400 l -80,270 l 240,25 l 20,-485 v 500 l 95,50 v -955 h -2560 v 950 l 140,-55 l 5,-490 l 20,475 l 160,-15 l -90,-390 Z" />
  <path id="near-wall-edge" fill="none" stroke="#0000c0" d="M 85,225 l 230,-150 l 400,-40 l 400,60 l 560,-60 l 640,160 l -30,400 l -80,270 l 240,30 l 110,60
M 5,955 l 160,-70 l 160,-20 l -90,-390 l -20,-330
M 165,875 l -20,-470
M 2445,885 l 20,-480" />

  <!-- archway -->
  <path id="archway-shadow" fill="#0000c0" stroke="none" d="M 1145,185 l 260,50 l 20,240 l -15,30 l -125,10 l -160,30 l -85,30 l -65,-130 l -10,-160 l 175,-100 Z" />
  <path id="archway-wall" fill="url(#fill-archway-wall)" stroke="none" d="M 930,620 l -65,-135 l 30,-240 l 160,-50 l 85,-10 l -175,100 l 10,160 l 65,130 Z" />
  <path id="archway-edge" fill="none" stroke="#0000c0" d="M 1415,505 l -130,10 l -160,30 l -190,80 l -70,-140 l 30,-240 l 160,-50 l 90,-10 l 260,50 l 20,240 l -70,170" />

  <!-- rocks -->
  <path id="rock-1-shadow" fill="url(#fill-rock-1)" stroke="none" d="M 720,680 l 60,-20 l 45,60 l 25,205 l -140,-45 l -95,35 l 80,-90 l 70,-40 l -10,-45 l -55,-65 Z" />
  <path id="rock-1" fill="none" stroke="#0000c0" d="M 850,930 l -185,0 l -140,20 l -75,-20 l 15,-140 l 55,-105 l 60,-25 l 140,20 l 60,-20 l 45,60 l 25,205 l -140,-45 l -95,35 l 80,-90 l 70,-40 l -10,-45 l -50,-60" />
  <path id="rock-2-shadow" fill="url(#fill-rock-2)" stroke="none" d="M 1255,645 l 70,-20 l 50,70 l 30,230 l -160,-50 l -110,40 l 90,-100 l 80,-50 l -10,-50 l -65,-75 Z" />
  <path id="rock-2" fill="none" stroke="#c00000" d="M 1405,930 l -210,5 l -160,20 l -90,-20 l 20,-160 l 60,-120 l 70,-30 l 160,20 l 70,-20 l 50,70 l 30,230 l -160,-50 l -110,40 l 90,-100 l 80,-50 l -10,-50 l -60,-70" />
  <path id="rock-3-shadow" fill="url(#fill-rock-3)" stroke="none" d="M 1750,700 l 60,-20 l 45,60 l 25,205 l -140,-45 l -95,35 l 80,-90 l 70,-40 l -10,-45 l -55,-65 Z" />
  <path id="rock-3" fill="none" stroke="#00c000" d="M 1880,950 l -185,0 l -140,20 l -75,-20 l 15,-140 l 55,-105 l 60,-25 l 140,20 l 60,-20 l 45,60 l 25,205 l -140,-45 l -95,35 l 80,-90 l 70,-40 l -10,-45 l -50,-60" />

</svg>
