<?xml version="1.0" encoding="UTF-8" standalone="yes"?>
<svg viewBox="0 0 2560 960" style="stroke-linecap:square;stroke-linejoin:round;stroke-width:11" height="100%" width="100%" xmlns="http://www.w3.org/2000/svg">

  <!-- far wall -->
  <rect id="far-wall" x="0" y="0" width="2560" height="560" stroke="none" fill="#ff0000" />

  <!-- passageways -->
  <path id="passageway-1" fill="#000000" stroke="#ff0000" d="M 325,565 v -370 h 45 v -40 h 40 v -40 h 85  h 75 v 40 h 40 v 40 h 40 v 370" />
  <path id="passageway-2" fill="#000000" stroke="#ff0000" d="M 1125,565 v -370 h 45 v -40 h 40 v -40 h 85  h 75 v 40 h 40 v 40 h 40 v 370" />
  <path id="passageway-3" fill="#000000" stroke="#ff0000" d="M 1915,565 v -370 h 45 v -40 h 40 v -40 h 85  h 75 v 40 h 40 v 40 h 40 v 370" />

  <!-- floor -->
  <rect id="floor" fill="#ff00ff" x="0" y="560" width="2560" height="400" />

  <!-- ceiling -->
  <rect id="ceiling" fill="#0000ff" x="0" y="0" width="2560" height="80" />

  <!-- pillar 1 -->
  <rect id="pillar-1-top" fill="#ffff00" x="0" y="80" width="320" height="80" />
  <rect id="pillar-1-middle" fill="#0000ff" x="0" y="160" width="240" height="80" />
  <rect id="pillar-1-column" fill="#ffff00" x="0" y="240" width="160" height="720" />

  <!-- pillar 2 -->
  <rect id="pillar-2-top" fill="#ffff00" x="640" y="80" width="480" height="80" />
  <rect id="pillar-2-middle" fill="#0000ff" x="720" y="160" width="320" height="80" />
  <rect id="pillar-2-column" fill="#ffff00" x="800" y="240" width="160" height="720" />

  <!-- pillar 3 -->
  <rect id="pillar-3-top" fill="#ffff00" x="1440" y="80" width="480" height="80" />
  <rect id="pillar-3-middle" fill="#0000ff" x="1520" y="160" width="320" height="80" />
  <rect id="pillar-3-column" fill="#ffff00" x="1600" y="240" width="160" height="720" />

  <!-- pillar 4 -->
  <rect id="pillar-4-top" fill="#ffff00" x="2240" y="80" width="320" height="80" />
  <rect id="pillar-4-middle" fill="#0000ff" x="2320" y="160" width="240" height="80" />
  <rect id="pillar-4-column" fill="#ffff00" x="2400" y="240" width="160" height="720" />

  <!-- archways -->
  <path id="archway-1" fill="none" stroke="#ff0000" d="M 155,955 v -715 h 81 v -80 h 80 v -80 h 328 v 80 h 80 v 80 h 80 v 715" />
  <path id="archway-2" fill="none" stroke="#ff0000" d="M 955,955 v -715 h 81 v -80 h 80 v -80 h 328 v 80 h 80 v 80 h 80 v 715" />
  <path id="archway-3" fill="none" stroke="#ff0000" d="M 1755,955 v -715 h 81 v -80 h 80 v -80 h 328 v 80 h 80 v 80 h 80 v 715" />

</svg>
