<?xml version="1.0" encoding="UTF-8" standalone="yes"?>
<!DOCTYPE svg PUBLIC "-//W3C//DTD SVG 1.0//EN" "http://www.w3.org/TR/2001/REC-SVG-20010904/DTD/svg10.dtd">
<svg viewBox="0 0 2560 960" style="stroke-linecap:square;stroke-linejoin:round;stroke-width:11" height="100%" width="100%" xmlns="http://www.w3.org/2000/svg">

  <!-- far wall -->
  <rect id="far-wall" x="0" y="0" width="2560" height="560" stroke="none" fill="#00c000" />

  <!-- passageways -->
  <path id="passageway-1" fill="#000000" stroke="#000000" d="M 1115,565 v -370 h 45 v -40 h 40 v -40 h 85  h 75 v 40 h 40 v 40 h 40 v 370" />

  <!-- floor -->
  <rect id="floor" fill="#c000c0" x="0" y="560" width="2560" height="400" />
  <path id="floor-edge" fill="none" stroke="#000000" d="M 0,555 h 2555" />

  <!-- far pillars -->
  <path id="far-pillar-1" fill="#c000c0" stroke="none" d="M 495,80 h 155 v 40 h -65 v 40 h -40 v 40 h -45 v 360 h -55 v -360 h -40 v -40 h -40 v -40 h -55 v -40 Z" />
  <path id="far-pillar-2" fill="#c000c0" stroke="none" d="M 2095,80 h 155 v 40 h -65 v 40 h -40 v 40 h -45 v 360 h -55 v -360 h -40 v -40 h -40 v -40 h -55 v -40 Z" />

  <!-- ceiling -->
  <rect id="ceiling" fill="#00c0c0" x="0" y="0" width="2560" height="80" />

  <!-- pillar 1 -->
  <rect id="pillar-1-top" fill="#0000c0" x="0" y="80" width="320" height="80" />
  <rect id="pillar-1-middle" fill="#00c0c0" x="0" y="160" width="240" height="80" />
  <rect id="pillar-1-column" fill="#0000c0" x="0" y="240" width="160" height="720" />

  <!-- pillar 2 -->
  <rect id="pillar-2-top" fill="#0000c0" x="640" y="80" width="480" height="80" />
  <rect id="pillar-2-middle" fill="#00c0c0" x="720" y="160" width="320" height="80" />
  <rect id="pillar-2-column" fill="#0000c0" x="800" y="240" width="160" height="720" />

  <!-- pillar 3 -->
  <rect id="pillar-3-top" fill="#0000c0" x="1440" y="80" width="480" height="80" />
  <rect id="pillar-3-middle" fill="#00c0c0" x="1520" y="160" width="320" height="80" />
  <rect id="pillar-3-column" fill="#0000c0" x="1600" y="240" width="160" height="720" />

  <!-- pillar 4 -->
  <rect id="pillar-4-top" fill="#0000c0" x="2240" y="80" width="320" height="80" />
  <rect id="pillar-4-middle" fill="#00c0c0" x="2320" y="160" width="240" height="80" />
  <rect id="pillar-4-column" fill="#0000c0" x="2400" y="240" width="160" height="720" />

  <!-- near archways -->
  <path id="archway-1" fill="none" stroke="#000000" d="M 155,955 v -715 h 81 v -80 h 80 v -80 h 328 v 80 h 80 v 80 h 80 v 715" />
  <path id="archway-2" fill="none" stroke="#000000" d="M 955,955 v -715 h 81 v -80 h 80 v -80 h 328 v 80 h 80 v 80 h 80 v 715" />
  <path id="archway-3" fill="none" stroke="#000000" d="M 1755,955 v -715 h 81 v -80 h 80 v -80 h 328 v 80 h 80 v 80 h 80 v 715" />

</svg>
