<?xml version="1.0" encoding="UTF-8" standalone="yes"?>
<svg viewBox="0 0 2560 960" style="stroke-width:10" height="100%" width="100%" xmlns="http://www.w3.org/2000/svg">

  <defs>
    <pattern id="fill-window-bottom" x="0" y="0" width="1" height="20" patternUnits="userSpaceOnUse">
      <rect fill="#c0c0c0" x="0" y="0" width="1" height="20" />
      <rect fill="#000000" x="0" y="10" width="1" height="10" />
    </pattern>
    <pattern id="fill-window-left" x="0" y="0" width="20" height="1" patternUnits="userSpaceOnUse">
      <rect fill="#c0c0c0" x="0" y="0" width="20" height="1" />
      <rect fill="#000000" x="0" y="0" width="10" height="1" />
    </pattern>
    <pattern id="fill-near-wall" x="0" y="0" width="40" height="20" patternUnits="userSpaceOnUse">
      <rect fill="#000000" x="0" y="0" width="40" height="20" />
      <rect fill="#c0c0c0" x="5" y="5" width="30" height="10" />
    </pattern>
  </defs>

  <!-- near wall -->
  <rect id="near-wall" fill="url(#fill-near-wall)" x="0" y="0" width="2560" height="960" />

  <!-- window -->
  <path id="window-left" fill="url(#fill-window-left)" stroke="none" d="M 1155,630 v -545 h -110 v 630 l 115,-85 Z" />
  <path id="window-bottom" fill="url(#fill-window-bottom)" stroke="none" d="M 1995,715 h -950 l 115,-85 h 835 Z" />
  <path id="window-frame" fill="none" stroke="#000000" d="M 1045,705 v -620 h 950 v 630 h -950 Z M 1145,645 l -100,70" />

  <!-- far room -->
  <rect id="darkness" fill="#000000" x="1120" y="80" width="880" height="570" />
  <rect id="far-wall" fill="#c0c000" x="1360" y="160" width="560" height="320" />
  <path id="shadowy-figure" fill="#000000" stroke="#000000" d="M 1915,360 c 0,0 -25,0 -40,-10 c -15,-15 -15,-65 -30,-80 c -7.5,-12.5 -25,-20 -40,-20 c -10,0 -15,10 -20,15 c -4,15 -19,70 -30,75 c 0,0 -24,10 -30,20 c -5,10 -20,120 -20,120 h 210 z" />

</svg>
