<?xml version="1.0" encoding="UTF-8" standalone="yes"?>
<!DOCTYPE svg PUBLIC "-//W3C//DTD SVG 1.0//EN" "http://www.w3.org/TR/2001/REC-SVG-20010904/DTD/svg10.dtd">
<svg viewBox="0 0 2560 960" style="stroke-linecap:square;stroke-width:10" height="100%" width="100%" xmlns="http://www.w3.org/2000/svg">
  <defs>
    <pattern id="fill-near-wall" x="0" y="0" width="40" height="20" patternUnits="userSpaceOnUse">
      <rect fill="#0000ff" x="0" y="0" width="40" height="20" />
      <rect fill="#000000" x="0" y="10" width="10" height="10" />
      <rect fill="#000000" x="10" y="0" width="10" height="10" />
      <rect fill="#000000" x="20" y="10" width="20" height="10" />
    </pattern>
    <pattern id="fill-archway-wall" x="0" y="0" width="40" height="20" patternUnits="userSpaceOnUse">
      <rect fill="#0000ff" x="0" y="0" width="40" height="20" />
      <rect fill="#000000" x="0" y="10" width="40" height="10" />
    </pattern>
    <pattern id="fill-far-wall" x="0" y="0" width="20" height="20" patternUnits="userSpaceOnUse">
      <rect fill="#0000ff" x="0" y="0" width="40" height="20" />
      <rect fill="#000000" x="0" y="10" width="10" height="10" />
    </pattern>
  </defs>

  <rect id="floor" fill="#0000ff" x="0" y="0" width="2560" height="960" />

  <!-- far wall -->
  <path id="far-wall" fill="url(#fill-far-wall)" stroke="none" d="M 520,640 l -25,-235 l -5,25 v 230 l -195,90 l -60,-275 l -25,-335 l 105,-65 l 400,-40 l 400,60 l 560,-60 l 640,160 l -30,400 l -30,85 l -405,-40 v -285 l -5,-20 l -35,300 h -50 l -405,10 l 70,-170 l -20,-240 l -260,-50 l -90,10 l -160,50 l -30,240 l 60,135 l -400,25 Z" />
  <path id="far-wall-left-edge" fill="none" stroke="#000000" d="M 295,755 l 230,-110 l 400,-20 M 520,640 l -25,-235 l 40,-200" />
  <path id="far-wall-right-edge" fill="none" stroke="#000000" d="M 1365,645 l 400,-10 l 500,50 M 1815,635 l 30,-300 l -40,-160" />

  <!-- near wall -->
  <path id="near-wall" fill="url(#fill-near-wall)" stroke="none" d="M 210,140 l 105,-65 l 400,-40 l 400,60 l 560,-60 l 640,160 l -30,400 l -80,270 l 240,25 l 20,-485 v 500 l 95,50 v -955 h -2560 v 950 l 140,-55 l 5,-490 l 20,475 l 160,-15 l -90,-390 Z" />
  <path id="near-wall-edge" fill="none" stroke="#000000" d="M 85,225 l 230,-150 l 400,-40 l 400,60 l 560,-60 l 640,160 l -30,400 l -80,270 l 240,30 l 110,60
M 5,955 l 160,-70 l 160,-20 l -90,-390 l -20,-330
M 165,875 l -20,-470
M 2445,885 l 20,-480" />

  <!-- archway -->
  <path id="archway-shadow" fill="#000000" stroke="none" d="M 1145,185 l 260,50 l 20,240 l -15,30 l -125,10 l -160,30 l -85,30 l -65,-130 l -10,-160 l 175,-100 Z" />
  <path id="archway-wall" fill="url(#fill-archway-wall)" stroke="none" d="M 930,620 l -65,-135 l 30,-240 l 160,-50 l 85,-10 l -175,100 l 10,160 l 65,130 Z" />
  <path id="archway-edge" fill="none" stroke="#000000" d="M 1415,505 l -130,10 l -160,30 l -190,80 l -70,-140 l 30,-240 l 160,-50 l 90,-10 l 260,50 l 20,240 l -70,170" />

  <!-- cobbles -->
  <path id="cobble-1" fill="none" stroke="#00ff00" stroke-linecap="round" d="M 425,955 c 0,0 40,-45 50,-60 c 15,-15 40,-20 70,-25 c 25,0 60,0 70,10 c 20,10 45,70 45,70" />
  <path id="cobble-2" fill="none" stroke="#00ff00" stroke-linecap="round" d="M 595,865 c 0,-10 20,-35 25,-45 c 10,-10 55,-25 70,-25 c 20,0 60,0 70,10 c 15,10 25,15 40,30" />
  <path id="cobble-3" fill="none" stroke="#00ff00" stroke-linecap="round" d="M 745,895 c 0,0 35,-45 45,-50 c 10,-10 40,-30 50,-35 c 15,-5 30,-10 45,-10 c 10,0 25,0 35,0 c 10,0 35,20 45,25 c 10,5 30,30 30,30" />
  <path id="cobble-4" fill="none" stroke="#00ff00" stroke-linecap="round" d="M 585,825 c 0,0 -10,-10 -17.5,-17.5 c -10,-10 -40,-15 -50,-15 c -15,0 -65,5 -78.75,8.75 c -15,5 -45,45 -45,45" />
  <path id="cobble-5" fill="none" stroke="#00ff00" stroke-linecap="round" d="M 1685,895 c 0,0 34,-38 42,-51 c 12,-12 34,-17 60,-21 c 21,0 51,0 60,8 c 17,8 38,60 38,60" />
  <path id="cobble-6" fill="none" stroke="#00ff00" stroke-linecap="round" d="M 1825,815 c 0,0 30,-38 38,-42 c 8,-8 34,-25 42,-30 c 12,-4 25,-8 38,-8 c 8,0 21,0 30,0 c 8,0 30,17 38,21 c 8,4 25,25 25,25" />
  <path id="cobble-7" fill="none" stroke="#00ff00" stroke-linecap="round" d="M 1955,845 c 0,-8 17,-30 21,-38 c 8,-8 47,-21 60,-21 c 17,0 51,0 60,8 c 12,8 21,12 34,25" />
  <path id="cobble-8" fill="none" stroke="#00ff00" stroke-linecap="round" d="M 1805,785 c 0,0 -8,-8 -15,-15 c -8,-8 -34,-12 -42,-12 c -12,0 -55,4 -67,7 c -12,4 -38,38 -38,38" />
  <path id="cobble-9" fill="none" stroke="#ff00ff" stroke-linecap="round" d="M 745,755 c 0,0 22,-25 28,-34 c 8,-8 22,-11 40,-14 c 14,0 34,0 40,5 c 11,5 25,40 25,40" />
  <path id="cobble-10" fill="none" stroke="#ff00ff" stroke-linecap="round" d="M 835,705 c 0,0 20,-25 25,-28 c 5,-5 22,-17 28,-20 c 8,-2 17,-5 25,-5 c 5,0 14,0 20,0 c 5,0 20,11 25,14 c 5,2 17,17 17,17" />
  <path id="cobble-11" fill="none" stroke="#ff00ff" stroke-linecap="round" d="M 925,725 c 0,-5 11,-20 14,-25 c 5,-5 31,-14 40,-14 c 11,0 34,0 40,5 c 8,5 14,8 22,17" />
  <path id="cobble-12" fill="none" stroke="#ff00ff" stroke-linecap="round" d="M 825,685 c 0,0 -5,-5 -10,-10 c -5,-5 -22,-8 -28,-8 c -8,0 -37,2 -45,5 c -8,2 -25,25 -25,25" />
  <path id="cobble-13" fill="none" stroke="#ff00ff" stroke-linecap="round" d="M 1115,955 c 0,0 40,-45 50,-60 c 15,-15 40,-20 70,-25 c 25,0 60,0 70,10 c 20,10 45,70 45,70" />
  <path id="cobble-14" fill="none" stroke="#ff00ff" stroke-linecap="round" d="M 1285,865 c 0,-10 20,-35 25,-45 c 10,-10 55,-25 70,-25 c 20,0 60,0 70,10 c 15,10 25,15 40,30" />
  <path id="cobble-15" fill="none" stroke="#ff00ff" stroke-linecap="round" d="M 1435,895 c 0,0 35,-45 45,-50 c 10,-10 40,-30 50,-35 c 15,-5 30,-10 45,-10 c 10,0 25,0 35,0 c 10,0 35,20 45,25 c 10,5 30,30 30,30" />
  <path id="cobble-16" fill="none" stroke="#ff00ff" stroke-linecap="round" d="M 1275,825 c 0,0 -10,-10 -17.5,-17.5 c -10,-10 -40,-15 -50,-15 c -15,0 -65,5 -78.75,8.75 c -15,5 -45,45 -45,45" />

</svg>
