<?xml version="1.0" encoding="UTF-8" standalone="yes"?>
<svg viewBox="0 0 2560 960" style="stroke-linecap:square;stroke-width:10" height="100%" width="100%" xmlns="http://www.w3.org/2000/svg">
  <defs>
    <pattern id="fill-floor" x="0" y="0" width="40" height="20" patternUnits="userSpaceOnUse">
      <rect fill="#ffff00" x="0" y="0" width="40" height="20" />
      <rect fill="#000000" x="10" y="0" width="10" height="10" />
      <rect fill="#000000" x="0"  y="10" width="10" height="10" />
      <rect fill="#000000" x="20" y="10" width="20" height="10" />
    </pattern>
    <pattern id="fill-far-wall" x="0" y="0" width="40" height="20" patternUnits="userSpaceOnUse">
      <rect fill="#ffff00" x="0" y="0" width="40" height="20" />
      <rect fill="#ff0000" x="0" y="0" width="10" height="10" />
      <rect fill="#ff0000" x="20" y="10" width="10" height="10" />
    </pattern>
  </defs>

  <!-- far wall -->
  <rect id="far-wall" fill="url(#fill-far-wall)" stroke="none" x="0" y="0" width="2560" height="480" />
  <path id="pillar-1" fill="#ff0000" stroke="#ff0000" d="M 1475,115 v 360 h -50 v -360 h -40 v -40 h -40 v -25 l 210,-25 v 50 h -40 v 40 Z" />
  <path id="pillar-2" fill="#ff0000" stroke="#ff0000" d="M 845,115 v 360 h -50 v -360 h -40 v -40 h -40 v -35 l 150,-15 l 60,5 v 45 h -40 v 40 Z" />

  <path id="skirting-board" fill="none" stroke="#ff0000" d="M 5,475 h 2555" />

  <!-- floor -->
  <rect id="floor" fill="url(#fill-floor)" stroke="none" x="0" y="480" width="2560" height="480" />

  <!-- chasm -->
  <path id="chasm" fill="#000000" stroke="#000000" d="M 545,565 l 450,10 l 1030,-30 h 20 v -60 h -1580 Z" />

  <!-- near wall -->
  <path id="near-wall" fill="#ffff00" stroke="none" d="M 395,165 l 170,-110 l 300,-30 l 300,45 l 420,-45 l 480,120 l -25,300 l -60,200 l 180,25 l 95,45 l 300,240 l 5,5 v -960 h -2560 v 960 l 5,-5 l 300,-260 l 120,-55 l 120,-15 l -70,-290 l -20,-215" />
  <path id="near-wall-edge" fill="none" stroke="#000000" d="M 395,165 l 170,-110 l 300,-30 l 300,45 l 420,-45 l 480,120 l -25,300 l -60,200 l 180,25 l 95,45 l 300,240 h -2550 l 300,-260 l 120,-55 l 120,-15 l -70,-290 l -15,-250 M 445,635 l -15,-350 M 2165,670 l 15,-360" />

</svg>
