<?xml version="1.0" encoding="UTF-8" standalone="yes"?>
<svg viewBox="0 0 2560 960" style="fill-rule:evenodd;stroke-linecap:square;stroke-width:10" height="100%" width="100%" xmlns="http://www.w3.org/2000/svg">
  <defs>
    <pattern id="fill-near-wall" x="0" y="0" width="40" height="20" patternUnits="userSpaceOnUse">
      <rect fill="#00ffff" x="0" y="0" width="40" height="20" />
      <rect fill="#ff0000" x="0" y="10" width="10" height="10" />
      <rect fill="#ff0000" x="10" y="0" width="10" height="10" />
      <rect fill="#ff0000" x="20" y="10" width="20" height="10" />
    </pattern>
    <pattern id="fill-archway-wall" x="0" y="0" width="40" height="20" patternUnits="userSpaceOnUse">
      <rect fill="#00ffff" x="0" y="0" width="40" height="20" />
      <rect fill="#ff0000" x="0" y="10" width="40" height="10" />
    </pattern>
  </defs>

  <rect id="floor" fill="#00ffff" x="0" y="0" width="2560" height="960" />

  <!-- far wall -->
  <path id="far-wall" fill="#00ffff" stroke="none" d="M 520,640 l -25,-235 l -5,25 v 230 l -195,90 l -60,-275 l -25,-335 l 105,-65 l 400,-40 l 400,60 l 560,-60 l 640,160 l -30,400 l -30,85 l -405,-40 v -285 l -5,-20 l -35,300 h -45 l -360,-30 l -475,20 l -405,20 Z" />
  <path id="far-wall-left-edge" fill="none" stroke="#ff0000" d="M 295,675 l 230,-110 l 400,-20 M 520,560 l -25,-235 l 40,-200" />
  <path id="far-wall-right-edge" fill="none" stroke="#ff0000" d="M 1765,555 l 500,50 M 1815,555 l 30,-300 l -40,-160" />

  <!-- near wall -->
  <path id="near-wall" fill="url(#fill-near-wall)" stroke="none" d="M 210,140 l 105,-65 l 400,-40 l 400,60 l 560,-60 l 640,160 l -30,400 l -80,270 l 240,25 l 20,-485 v 500 l 95,50 v -955 h -2560 v 950 l 140,-55 l 5,-490 l 20,475 l 160,-15 l -90,-390 Z" />
  <path id="near-wall-edge" fill="none" stroke="#ff0000" d="M 85,225 l 230,-150 l 400,-40 l 400,60 l 560,-60 l 640,160 l -30,400 l -80,270 l 240,30 l 110,60
M 5,955 l 160,-70 l 160,-20 l -90,-390 l -20,-330
M 165,875 l -20,-470
M 2445,885 l 20,-480" />

  <!-- batmobile -->
  <rect id="window" fill="#ffffff" fill-opacity="0.75" stroke="#000000" x="805" y="405" width="950" height="310" />
  <path id="body" fill="#0000ff" d="M 720,960 h 1120 v -230 l -80,-80 v 70 h -960 v -80 l -80,80 Z" />

  <path id="headlamp-socket-1" fill="#000000" stroke="#000000" d="M 425,955 v -160 c 0,-60 60,-120 120,-120 h 120 c 60,0 120,60 120,120 v 160 Z" />
  <circle id="headlamp-1" cx="600" cy="830" r="120" fill="#ffff00" />

  <path id="headlamp-socket-2" fill="#000000" stroke="#000000" d="M 1785,955 v -160 c 0,-60 60,-120 120,-120 h 120 c 60,0 120,60 120,120 v 160 Z" />
  <circle id="headlamp-2" cx="1960" cy="830" r="120" fill="#ffff00" />

  <path id="hood-ornament" fill="#000000" stroke="#000000" d="M 1045,955 v -350 l 80,160 l 120,-40 h 80 l 120,40 l 80,-160 v 350 Z" />
  <circle id="eye-1" fill="#ff0000" stroke="#ff0000" cx="1185" cy="905" r="20" />
  <circle id="eye-1" fill="#ff0000" stroke="#ff0000" cx="1385" cy="905" r="20" />
  <path id="hood" fill="none" stroke="#000000" d="M 425,955 h 1720" />

</svg>
