<?xml version="1.0" encoding="UTF-8" standalone="yes"?>
<svg viewBox="0 0 2560 960" style="stroke-width:10" height="100%" width="100%" xmlns="http://www.w3.org/2000/svg">

  <defs>
    <pattern id="fill-wall" x="0" y="0" width="20" height="20" patternUnits="userSpaceOnUse">
      <rect fill="#00ff00" x="0" y="0" width="40" height="20" />
      <rect fill="#ff0000" x="5" y="5" width="10" height="10" />
    </pattern>
    <pattern id="fill-door-glass" x="0" y="0" width="40" height="1" patternUnits="userSpaceOnUse">
      <rect fill="#00ffff" x="0" y="0" width="40" height="1" />
      <rect fill="#000000" x="0" y="0" width="10" height="1" />
    </pattern>
  </defs>

  <!-- wall -->
  <rect id="upper-wall" fill="url(#fill-wall)" x="0" y="0" width="2560" height="640" />
  <rect id="lower-wall" fill="#ff0000" x="0" y="640" width="2560" height="320" />

  <path id="door" fill="#0000ff" stroke="#ffff00" d="M 1595,635 v -630 h -630 v 630 h 630 Z M 1275,5 v 630" />
  <path id="door-panels" fill="none" stroke="#ffff00" d="M 1015,275 v -230 h 200 v 240 h -200 Z M 1015,565 v -230 h 200 v 240 h -200 Z M 1335,565 v -230 h 200 v 240 h -200 Z M 1335,275 v -230 h 200 v 240 h -200 Z" />

  <!-- steps -->
  <path id="steps-edge" fill="#ffff00" stroke="#ffff00" d="M 815,715 l 150,-70 h 630 l 160,80 v 80 l 160,80 v 70 h -1260 v -70 l 160,-80 v -80 Z" />

  <rect id="step-vertical-1" fill="#000000" stroke="none" x="660" y="890" width="1250" height="60" />
  <rect id="step-vertical-2" fill="#000000" stroke="none" x="820" y="730" width="930" height="70" />

</svg>
