<?xml version="1.0" encoding="UTF-8" standalone="yes"?>
<!DOCTYPE svg PUBLIC "-//W3C//DTD SVG 1.0//EN" "http://www.w3.org/TR/2001/REC-SVG-20010904/DTD/svg10.dtd">
<svg viewBox="0 0 2560 960" style="stroke-linecap:round;fill:none;stroke-linejoin:round;stroke-width:10" height="100%" width="100%" xmlns="http://www.w3.org/2000/svg">

  <!-- Background -->
  <rect id="darkness" fill="#000000" x="0" y="0" width="2560" height="960" />
  <path id="entrance" fill="#c0c0c0" stroke="#c0c0c0" d="M 1675,425 l 50,-150 l 110,40 l 40,110 l -100,20 Z" />

  <!-- cobbles -->
  <path id="cobble-1" stroke="#c0c0c0" d="M 325,955 c 0,0 40,-45 50,-60 c 15,-15 40,-20 70,-25 c 25,0 60,0 70,10 c 20,10 45,70 45,70" />
  <path id="cobble-2" stroke="#c0c0c0" d="M 495,865 c 0,-10 20,-35 25,-45 c 10,-10 55,-25 70,-25 c 20,0 60,0 70,10 c 15,10 25,15 40,30" />
  <path id="cobble-3" stroke="#c0c0c0" d="M 645,895 c 0,0 35,-45 45,-50 c 10,-10 40,-30 50,-35 c 15,-5 30,-10 45,-10 c 10,0 25,0 35,0 c 10,0 35,20 45,25 c 10,5 30,30 30,30" />
  <path id="cobble-4" stroke="#c0c0c0" d="M 485,825 c 0,0 -10,-10 -17.5,-17.5 c -10,-10 -40,-15 -50,-15 c -15,0 -65,5 -78.75,8.75 c -15,5 -45,45 -45,45" />
  <path id="cobble-5" stroke="#c0c0c0" d="M 1585,895 c 0,0 34,-38 42,-51 c 12,-12 34,-17 60,-21 c 21,0 51,0 60,8 c 17,8 38,60 38,60" />
  <path id="cobble-6" stroke="#c0c0c0" d="M 1725,815 c 0,0 30,-38 38,-42 c 8,-8 34,-25 42,-30 c 12,-4 25,-8 38,-8 c 8,0 21,0 30,0 c 8,0 30,17 38,21 c 8,4 25,25 25,25" />
  <path id="cobble-7" stroke="#c0c0c0" d="M 1855,845 c 0,-8 17,-30 21,-38 c 8,-8 47,-21 60,-21 c 17,0 51,0 60,8 c 12,8 21,12 34,25" />
  <path id="cobble-8" stroke="#c0c0c0" d="M 1705,785 c 0,0 -8,-8 -15,-15 c -8,-8 -34,-12 -42,-12 c -12,0 -55,4 -67,7 c -12,4 -38,38 -38,38" />
  <path id="cobble-9" stroke="#c000c0" d="M 645,755 c 0,0 22,-25 28,-34 c 8,-8 22,-11 40,-14 c 14,0 34,0 40,5 c 11,5 25,40 25,40" />
  <path id="cobble-10" stroke="#c000c0" d="M 735,705 c 0,0 20,-25 25,-28 c 5,-5 22,-17 28,-20 c 8,-2 17,-5 25,-5 c 5,0 14,0 20,0 c 5,0 20,11 25,14 c 5,2 17,17 17,17" />
  <path id="cobble-11" stroke="#c000c0" d="M 825,725 c 0,-5 11,-20 14,-25 c 5,-5 31,-14 40,-14 c 11,0 34,0 40,5 c 8,5 14,8 22,17" />
  <path id="cobble-12" stroke="#c000c0" d="M 725,685 c 0,0 -5,-5 -10,-10 c -5,-5 -22,-8 -28,-8 c -8,0 -37,2 -45,5 c -8,2 -25,25 -25,25" />
  <path id="cobble-13" stroke="#c000c0" d="M 1555,575 c 0,0 17,-19 21,-25 c 6,-6 17,-8 30,-10 c 10,0 25,0 30,4 c 8,4 19,30 19,30" />
  <path id="cobble-14" stroke="#c000c0" d="M 1615,535 c 0,0 15,-19 19,-21 c 4,-4 17,-12 21,-15 c 6,-2 12,-4 19,-4 c 4,0 10,0 15,0 c 4,0 15,8 19,10 c 4,2 12,12 12,12" />
  <path id="cobble-15" stroke="#c000c0" d="M 1675,545 c 0,-4 8,-15 10,-19 c 4,-4 23,-10 30,-10 c 8,0 25,0 30,4 c 6,4 10,6 17,12" />
  <path id="cobble-16" stroke="#c000c0" d="M 1575,525 c 0,0 -4,-4 -7,-7 c -4,-4 -17,-6 -21,-6 c -6,0 -27,2 -33,3 c -6,2 -19,19 -19,19" />

</svg>
